<svg width="300" height="65" viewBox="0 0 300 65" fill="none" xmlns="http://www.w3.org/2000/svg">
<path fill-rule="evenodd" clip-rule="evenodd" d="M33.5301 65C52.0483 65 67.0602 50.4493 67.0602 32.5C67.0602 14.5507 52.0483 0 33.5301 0C15.0119 0 0 14.5507 0 32.5C0 50.4493 15.0119 65 33.5301 65ZM48.425 28.5162H34.8849C34.5239 28.5162 34.212 28.6443 33.9494 28.9006C33.6868 29.1569 33.5555 29.4612 33.5555 29.8136V35.1473C33.5555 35.4996 33.6868 35.8039 33.9494 36.0602C34.212 36.3165 34.5239 36.4446 34.8849 36.4446H37.1991C37.1991 38.7511 35.8204 39.9043 33.0632 39.9043C30.3716 39.9043 29.0258 38.5429 29.0258 35.82V27.6513C29.0258 25.2487 30.2895 24.0474 32.817 24.0474C33.4407 24.0474 34.13 24.1916 34.8849 24.4799C35.2132 24.608 35.7055 25.0886 36.362 25.9214C36.6575 26.2738 37.1334 26.45 37.7899 26.45H48.6712C48.9666 26.45 49.2128 26.3539 49.4097 26.1617C49.6395 25.9375 49.7544 25.6812 49.7544 25.3929C49.7544 22.3817 48.1952 19.851 45.0769 17.8008C41.9586 15.7186 37.872 14.6775 32.817 14.6775C27.7949 14.6775 23.7739 15.8147 20.754 18.0891C17.7342 20.3315 16.2243 23.583 16.2243 27.8435V35.9161C16.2243 40.3688 17.7014 43.7164 20.6556 45.9587C23.6098 48.1691 27.6472 49.2743 32.7678 49.2743C37.9212 49.2743 42.0407 48.1371 45.1261 45.8626C48.2116 43.5562 49.7544 40.2887 49.7544 36.0602V29.8136C49.7544 29.4612 49.6231 29.1569 49.3605 28.9006C49.0979 28.6443 48.7861 28.5162 48.425 28.5162Z" fill="white"/>
<path d="M85.5483 50.3226C81.364 50.3226 77.9533 49.0918 75.3161 46.6303C72.6965 44.1687 71.3867 40.8894 71.3867 36.7924V36.0843C71.3867 33.3361 71.9405 30.883 73.0481 28.7249C74.1558 26.55 75.7205 24.8808 77.7423 23.7175C79.7817 22.5373 82.1024 21.9472 84.7044 21.9472C88.6075 21.9472 91.6754 23.1274 93.9082 25.4878C96.1586 27.8482 97.2838 31.1949 97.2838 35.5279V38.5122H79.1136C79.3598 40.2993 80.0982 41.7324 81.3289 42.8115C82.5771 43.8905 84.1506 44.43 86.0494 44.43C88.9855 44.43 91.2798 43.41 92.9324 41.3699L96.6772 45.391C95.5344 46.9422 93.9873 48.1561 92.0358 49.0328C90.0843 49.8927 87.9218 50.3226 85.5483 50.3226ZM84.6781 27.8651C83.1661 27.8651 81.9354 28.354 80.986 29.3319C80.0542 30.3098 79.4565 31.7091 79.1928 33.53H89.7942V32.9483C89.759 31.3298 89.3019 30.0821 88.4229 29.2054C87.5438 28.3118 86.2955 27.8651 84.6781 27.8651Z" fill="white"/>
<path d="M108.65 22.453L108.887 25.6142C110.927 23.1695 113.661 21.9472 117.089 21.9472C120.113 21.9472 122.363 22.7986 123.84 24.5015C125.317 26.2043 126.073 28.7502 126.108 32.1391V49.8168H118.487V32.3161C118.487 30.765 118.135 29.6438 117.432 28.9525C116.729 28.2444 115.559 27.8903 113.924 27.8903C111.779 27.8903 110.171 28.7671 109.098 30.5205V49.8168H101.477V22.453H108.65Z" fill="white"/>
<path d="M145.043 50.3226C140.859 50.3226 137.448 49.0918 134.811 46.6303C132.191 44.1687 130.881 40.8894 130.881 36.7924V36.0843C130.881 33.3361 131.435 30.883 132.543 28.7249C133.65 26.55 135.215 24.8808 137.237 23.7175C139.276 22.5373 141.597 21.9472 144.199 21.9472C148.102 21.9472 151.17 23.1274 153.403 25.4878C155.653 27.8482 156.778 31.1949 156.778 35.5279V38.5122H138.608C138.854 40.2993 139.593 41.7324 140.824 42.8115C142.072 43.8905 143.645 44.43 145.544 44.43C148.48 44.43 150.774 43.41 152.427 41.3699L156.172 45.391C155.029 46.9422 153.482 48.1561 151.53 49.0328C149.579 49.8927 147.416 50.3226 145.043 50.3226ZM144.173 27.8651C142.661 27.8651 141.43 28.354 140.481 29.3319C139.549 30.3098 138.951 31.7091 138.687 33.53H149.289V32.9483C149.254 31.3298 148.797 30.0821 147.918 29.2054C147.038 28.3118 145.79 27.8651 144.173 27.8651Z" fill="white"/>
<path d="M177.164 29.3066C176.126 29.1717 175.212 29.1043 174.421 29.1043C171.538 29.1043 169.648 30.04 168.751 31.9115V49.8168H161.13V22.453H168.329L168.54 25.7154C170.07 23.2033 172.188 21.9472 174.896 21.9472C175.74 21.9472 176.531 22.0568 177.269 22.276L177.164 29.3066Z" fill="white"/>
<path d="M196.6 49.8168C196.248 49.1593 195.993 48.3416 195.835 47.3637C193.989 49.3363 191.589 50.3226 188.635 50.3226C185.84 50.3226 183.519 49.547 181.673 47.9959C179.845 46.4448 178.931 44.489 178.931 42.1286C178.931 39.2287 180.047 37.0032 182.28 35.4521C184.53 33.9009 187.774 33.1169 192.011 33.1001H195.519V31.5321C195.519 30.2676 195.176 29.256 194.49 28.4973C193.822 27.7386 192.758 27.3592 191.299 27.3592C190.016 27.3592 189.005 27.6543 188.266 28.2444C187.545 28.8345 187.185 29.6438 187.185 30.6722H179.564C179.564 29.0874 180.073 27.6206 181.093 26.2718C182.113 24.923 183.555 23.8692 185.418 23.1105C187.282 22.335 189.374 21.9472 191.695 21.9472C195.211 21.9472 197.997 22.7986 200.054 24.5015C202.129 26.1875 203.166 28.5647 203.166 31.6333V43.4943C203.184 46.0907 203.562 48.0549 204.3 49.3869V49.8168H196.6ZM190.297 44.7335C191.422 44.7335 192.459 44.4975 193.409 44.0254C194.358 43.5364 195.061 42.8873 195.519 42.0781V37.3741H192.67C188.855 37.3741 186.825 38.6386 186.578 41.1676L186.552 41.5975C186.552 42.508 186.886 43.2583 187.554 43.8484C188.222 44.4385 189.137 44.7335 190.297 44.7335Z" fill="white"/>
<path d="M218.145 15.7258V22.453H223.024V27.8145H218.145V41.4711C218.145 42.4827 218.348 43.2077 218.752 43.646C219.156 44.0844 219.93 44.3036 221.073 44.3036C221.917 44.3036 222.664 44.2446 223.314 44.1265V49.6651C221.82 50.1034 220.282 50.3226 218.699 50.3226C213.355 50.3226 210.63 47.7346 210.524 42.5586V27.8145H206.357V22.453H210.524V15.7258H218.145Z" fill="white"/>
<path d="M225.292 35.882C225.292 33.1675 225.837 30.7481 226.927 28.6238C228.017 26.4994 229.582 24.8555 231.621 23.6922C233.678 22.5289 236.061 21.9472 238.768 21.9472C242.618 21.9472 245.757 23.0768 248.183 25.336C250.627 27.5953 251.989 30.6638 252.271 34.5416L252.323 36.4131C252.323 40.6112 251.101 43.9832 248.658 46.5291C246.214 49.0581 242.935 50.3226 238.821 50.3226C234.707 50.3226 231.419 49.0581 228.958 46.5291C226.514 44.0001 225.292 40.5607 225.292 36.2108V35.882ZM232.914 36.4131C232.914 39.0095 233.424 40.999 234.443 42.3815C235.463 43.7472 236.922 44.43 238.821 44.43C240.667 44.43 242.109 43.7556 243.146 42.4068C244.183 41.0412 244.702 38.8662 244.702 35.882C244.702 33.3361 244.183 31.3635 243.146 29.9641C242.109 28.5647 240.649 27.8651 238.768 27.8651C236.905 27.8651 235.463 28.5647 234.443 29.9641C233.424 31.3466 232.914 33.4963 232.914 36.4131Z" fill="white"/>
<path d="M273.051 29.3066C272.014 29.1717 271.1 29.1043 270.309 29.1043C267.425 29.1043 265.535 30.04 264.639 31.9115V49.8168H257.017V22.453H264.217L264.428 25.7154C265.957 23.2033 268.076 21.9472 270.783 21.9472C271.627 21.9472 272.419 22.0568 273.157 22.276L273.051 29.3066Z" fill="white"/>
<path d="M292.197 42.2551C292.197 41.3615 291.731 40.6618 290.8 40.156C289.885 39.6333 288.409 39.1697 286.369 38.7651C279.583 37.3994 276.19 34.6344 276.19 30.4699C276.19 28.0421 277.236 26.0189 279.328 24.4003C281.438 22.7649 284.189 21.9472 287.582 21.9472C291.204 21.9472 294.096 22.7649 296.259 24.4003C298.439 26.0357 299.529 28.1601 299.529 30.7734H291.907C291.907 29.7281 291.556 28.8682 290.852 28.1938C290.149 27.5026 289.05 27.1569 287.556 27.1569C286.272 27.1569 285.279 27.4351 284.576 27.9915C283.873 28.5479 283.521 29.256 283.521 30.1159C283.521 30.9251 283.917 31.5827 284.708 32.0885C285.516 32.5774 286.87 33.0074 288.769 33.3783C290.668 33.7323 292.268 34.137 293.569 34.5922C297.595 36.0084 299.608 38.4616 299.608 41.9516C299.608 44.4469 298.491 46.4701 296.259 48.0212C294.026 49.5555 291.142 50.3226 287.609 50.3226C285.218 50.3226 283.09 49.918 281.227 49.1087C279.381 48.2825 277.93 47.1614 276.875 45.7451C275.82 44.312 275.293 42.7693 275.293 41.117H282.519C282.589 42.4153 283.09 43.41 284.022 44.1013C284.954 44.7925 286.202 45.1381 287.767 45.1381C289.226 45.1381 290.325 44.8768 291.063 44.3542C291.819 43.8146 292.197 43.1149 292.197 42.2551Z" fill="white"/>
</svg>
