<svg width="531" height="763" viewBox="0 0 531 763" fill="none" xmlns="http://www.w3.org/2000/svg">
<path d="M125.711 26.4829H404.711C402.022 27.2882 400.15 29.7226 400.062 32.5279L400.018 33.8986C400.018 51.8944 385.43 66.4829 367.434 66.4829H162.988C144.992 66.4829 130.404 51.8944 130.404 33.8986L130.36 32.5279C130.272 29.7226 128.4 27.2882 125.711 26.4829Z" fill="black"/>
<path d="M231.658 152.4C228.561 151.546 226.304 150.5 224.888 149.262C223.483 148.011 222.781 146.472 222.781 144.644C222.781 142.576 223.64 140.868 225.358 139.521C227.088 138.162 229.332 137.483 232.09 137.483C233.971 137.483 235.645 137.832 237.112 138.529C238.591 139.227 239.732 140.189 240.534 141.415C241.349 142.642 241.757 143.983 241.757 145.438H238.127C238.127 143.85 237.601 142.606 236.548 141.704C235.494 140.79 234.009 140.333 232.09 140.333C230.31 140.333 228.918 140.712 227.915 141.469C226.925 142.215 226.43 143.255 226.43 144.59C226.43 145.66 226.9 146.568 227.84 147.314C228.793 148.047 230.404 148.721 232.673 149.334C234.955 149.947 236.736 150.627 238.014 151.372C239.306 152.106 240.259 152.965 240.873 153.951C241.5 154.938 241.813 156.098 241.813 157.433C241.813 159.561 240.948 161.269 239.218 162.555C237.488 163.83 235.175 164.467 232.278 164.467C230.398 164.467 228.643 164.125 227.013 163.439C225.383 162.742 224.123 161.792 223.233 160.589C222.355 159.387 221.916 158.022 221.916 156.495H225.546C225.546 158.082 226.154 159.339 227.37 160.265C228.599 161.179 230.235 161.636 232.278 161.636C234.184 161.636 235.645 161.263 236.66 160.517C237.676 159.772 238.184 158.756 238.184 157.469C238.184 156.182 237.714 155.19 236.773 154.493C235.833 153.783 234.128 153.086 231.658 152.4Z" fill="white"/>
<path d="M244.992 154.168C244.992 152.256 245.38 150.536 246.158 149.009C246.947 147.482 248.038 146.303 249.43 145.474C250.834 144.644 252.433 144.229 254.226 144.229C256.996 144.229 259.234 145.149 260.94 146.989C262.657 148.829 263.516 151.276 263.516 154.33V154.565C263.516 156.465 263.134 158.172 262.369 159.687C261.617 161.191 260.532 162.363 259.115 163.205C257.711 164.047 256.094 164.467 254.263 164.467C251.505 164.467 249.267 163.548 247.549 161.708C245.844 159.868 244.992 157.433 244.992 154.402V154.168ZM248.49 154.565C248.49 156.729 249.01 158.467 250.051 159.778C251.104 161.088 252.508 161.744 254.263 161.744C256.031 161.744 257.435 161.082 258.476 159.76C259.516 158.425 260.037 156.561 260.037 154.168C260.037 152.027 259.504 150.296 258.438 148.973C257.385 147.638 255.981 146.971 254.226 146.971C252.508 146.971 251.123 147.626 250.069 148.937C249.016 150.248 248.49 152.124 248.49 154.565Z" fill="white"/>
<path d="M271.17 144.59L271.283 147.043C272.838 145.167 274.869 144.229 277.376 144.229C281.677 144.229 283.846 146.556 283.883 151.21V164.107H280.404V151.192C280.392 149.785 280.053 148.745 279.389 148.071C278.737 147.398 277.715 147.061 276.323 147.061C275.195 147.061 274.204 147.35 273.352 147.927C272.499 148.504 271.835 149.262 271.358 150.2V164.107H267.879V144.59H271.17Z" fill="white"/>
<path d="M288.303 154.186C288.303 151.144 289.036 148.727 290.503 146.935C291.97 145.131 293.914 144.229 296.333 144.229C298.816 144.229 300.753 145.071 302.144 146.754L302.314 144.59H305.492V163.638C305.492 166.163 304.708 168.153 303.141 169.608C301.587 171.063 299.493 171.791 296.86 171.791C295.393 171.791 293.957 171.49 292.553 170.889C291.149 170.288 290.077 169.464 289.337 168.418L291.143 166.416C292.635 168.183 294.459 169.067 296.615 169.067C298.308 169.067 299.624 168.61 300.565 167.696C301.518 166.782 301.994 165.496 301.994 163.836V162.159C300.602 163.698 298.703 164.467 296.296 164.467C293.914 164.467 291.983 163.548 290.503 161.708C289.036 159.868 288.303 157.361 288.303 154.186ZM291.801 154.565C291.801 156.765 292.271 158.497 293.211 159.76C294.152 161.01 295.468 161.636 297.161 161.636C299.355 161.636 300.966 160.68 301.994 158.768V149.857C300.928 147.993 299.33 147.061 297.198 147.061C295.506 147.061 294.183 147.692 293.23 148.955C292.277 150.218 291.801 152.088 291.801 154.565Z" fill="white"/>
<path d="M341.901 164.107H338.272L324.487 143.868V164.107H320.857V137.844H324.487L338.309 158.172V137.844H341.901V164.107Z" fill="white"/>
<path d="M360.332 164.107C360.131 163.722 359.968 163.036 359.843 162.05C358.225 163.662 356.295 164.467 354.05 164.467C352.044 164.467 350.396 163.926 349.104 162.844C347.825 161.75 347.186 160.367 347.186 158.695C347.186 156.663 347.988 155.088 349.593 153.969C351.211 152.839 353.48 152.274 356.401 152.274H359.786V150.741C359.786 149.574 359.423 148.648 358.696 147.963C357.968 147.265 356.896 146.917 355.48 146.917C354.238 146.917 353.198 147.217 352.358 147.819C351.518 148.42 351.098 149.147 351.098 150.001H347.6C347.6 149.027 347.957 148.089 348.672 147.187C349.399 146.273 350.377 145.552 351.606 145.023C352.847 144.494 354.207 144.229 355.687 144.229C358.031 144.229 359.868 144.794 361.197 145.925C362.526 147.043 363.215 148.588 363.266 150.56V159.543C363.266 161.335 363.504 162.76 363.98 163.818V164.107H360.332ZM354.558 161.563C355.649 161.563 356.683 161.293 357.661 160.752C358.639 160.211 359.348 159.507 359.786 158.641V154.637H357.059C352.797 154.637 350.665 155.833 350.665 158.226C350.665 159.273 351.029 160.09 351.756 160.68C352.483 161.269 353.417 161.563 354.558 161.563Z" fill="white"/>
<path d="M371.992 144.59L372.086 146.754C373.578 145.071 375.59 144.229 378.123 144.229C380.969 144.229 382.906 145.275 383.934 147.368C384.611 146.43 385.489 145.672 386.567 145.095C387.658 144.518 388.943 144.229 390.422 144.229C394.885 144.229 397.155 146.496 397.23 151.029V164.107H393.751V151.228C393.751 149.833 393.419 148.793 392.754 148.107C392.09 147.41 390.974 147.061 389.407 147.061C388.115 147.061 387.043 147.434 386.191 148.179C385.338 148.913 384.843 149.905 384.705 151.156V164.107H381.207V151.318C381.207 148.48 379.759 147.061 376.863 147.061C374.581 147.061 373.02 147.993 372.18 149.857V164.107H368.701V144.59H371.992Z" fill="white"/>
<path d="M410.939 164.467C408.181 164.467 405.936 163.602 404.206 161.87C402.476 160.126 401.611 157.8 401.611 154.889V154.276C401.611 152.34 401.993 150.614 402.758 149.099C403.535 147.572 404.614 146.382 405.993 145.528C407.385 144.662 408.889 144.229 410.506 144.229C413.152 144.229 415.208 145.065 416.675 146.736C418.142 148.408 418.875 150.801 418.875 153.915V155.304H405.09C405.14 157.228 405.723 158.786 406.839 159.976C407.968 161.155 409.397 161.744 411.127 161.744C412.356 161.744 413.396 161.503 414.249 161.022C415.101 160.541 415.847 159.904 416.487 159.11L418.612 160.698C416.907 163.211 414.349 164.467 410.939 164.467ZM410.506 146.971C409.102 146.971 407.924 147.464 406.971 148.45C406.018 149.424 405.429 150.795 405.203 152.563H415.396V152.31C415.296 150.614 414.819 149.304 413.967 148.378C413.114 147.44 411.961 146.971 410.506 146.971Z" fill="white"/>
<path d="M248.41 210.302C247.231 211.657 245.564 212.711 243.409 213.465C241.254 214.205 238.866 214.575 236.245 214.575C233.494 214.575 231.077 214.003 228.995 212.857C226.927 211.698 225.326 210.023 224.19 207.83C223.069 205.638 222.494 203.061 222.464 200.101V198.027C222.464 194.983 222.996 192.35 224.059 190.13C225.136 187.896 226.68 186.192 228.689 185.019C230.713 183.832 233.079 183.238 235.787 183.238C239.558 183.238 242.506 184.104 244.632 185.836C246.758 187.553 248.017 190.06 248.41 193.356H242.033C241.742 191.61 241.094 190.332 240.089 189.522C239.099 188.713 237.731 188.308 235.983 188.308C233.756 188.308 232.059 189.111 230.895 190.716C229.73 192.322 229.14 194.71 229.126 197.88V199.828C229.126 203.026 229.759 205.442 231.026 207.076C232.292 208.71 234.149 209.527 236.595 209.527C239.055 209.527 240.81 209.024 241.858 208.019V202.761H235.896V198.132H248.41V210.302Z" fill="white"/>
<path d="M264.2 214.575C260.735 214.575 257.91 213.556 255.726 211.517C253.557 209.478 252.472 206.762 252.472 203.368V202.782C252.472 200.506 252.931 198.474 253.848 196.686C254.766 194.885 256.061 193.502 257.736 192.539C259.425 191.561 261.347 191.073 263.501 191.073C266.734 191.073 269.274 192.05 271.124 194.005C272.987 195.96 273.919 198.732 273.919 202.321V204.793H258.871C259.075 206.273 259.687 207.46 260.706 208.354C261.74 209.248 263.043 209.694 264.615 209.694C267.047 209.694 268.947 208.85 270.315 207.16L273.417 210.49C272.47 211.775 271.189 212.781 269.573 213.507C267.957 214.219 266.166 214.575 264.2 214.575ZM263.48 195.974C262.227 195.974 261.208 196.379 260.422 197.189C259.65 197.999 259.155 199.158 258.937 200.666H267.717V200.185C267.687 198.844 267.309 197.811 266.581 197.084C265.853 196.344 264.819 195.974 263.48 195.974Z" fill="white"/>
<path d="M283.333 191.491L283.53 194.11C285.218 192.085 287.483 191.073 290.322 191.073C292.826 191.073 294.69 191.778 295.913 193.188C297.136 194.599 297.762 196.707 297.791 199.514V214.156H291.479V199.661C291.479 198.376 291.188 197.447 290.606 196.875C290.023 196.288 289.055 195.995 287.701 195.995C285.925 195.995 284.592 196.721 283.704 198.174V214.156H277.393V191.491H283.333Z" fill="white"/>
<path d="M313.471 214.575C310.006 214.575 307.181 213.556 304.997 211.517C302.828 209.478 301.743 206.762 301.743 203.368V202.782C301.743 200.506 302.202 198.474 303.119 196.686C304.036 194.885 305.332 193.502 307.006 192.539C308.695 191.561 310.617 191.073 312.772 191.073C316.004 191.073 318.545 192.05 320.394 194.005C322.258 195.96 323.19 198.732 323.19 202.321V204.793H308.142C308.346 206.273 308.957 207.46 309.976 208.354C311.01 209.248 312.313 209.694 313.886 209.694C316.317 209.694 318.217 208.85 319.586 207.16L322.687 210.49C321.741 211.775 320.46 212.781 318.843 213.507C317.227 214.219 315.436 214.575 313.471 214.575ZM312.75 195.974C311.498 195.974 310.479 196.379 309.693 197.189C308.921 197.999 308.426 199.158 308.207 200.666H316.987V200.185C316.958 198.844 316.579 197.811 315.851 197.084C315.123 196.344 314.09 195.974 312.75 195.974Z" fill="white"/>
<path d="M340.072 197.168C339.213 197.056 338.456 197.001 337.8 197.001C335.413 197.001 333.847 197.776 333.105 199.326V214.156H326.793V191.491H332.755L332.93 194.194C334.197 192.113 335.951 191.073 338.193 191.073C338.892 191.073 339.548 191.163 340.159 191.345L340.072 197.168Z" fill="white"/>
<path d="M356.168 214.156C355.876 213.612 355.665 212.934 355.534 212.124C354.005 213.758 352.018 214.575 349.572 214.575C347.257 214.575 345.335 213.933 343.806 212.648C342.292 211.363 341.535 209.743 341.535 207.788C341.535 205.386 342.46 203.543 344.309 202.258C346.172 200.974 348.859 200.324 352.367 200.31H355.272V199.011C355.272 197.964 354.988 197.126 354.42 196.498C353.867 195.869 352.986 195.555 351.778 195.555C350.715 195.555 349.878 195.8 349.266 196.288C348.669 196.777 348.371 197.447 348.371 198.299H342.059C342.059 196.987 342.481 195.772 343.326 194.655C344.17 193.537 345.364 192.665 346.908 192.036C348.451 191.394 350.184 191.073 352.105 191.073C355.017 191.073 357.325 191.778 359.029 193.188C360.747 194.585 361.606 196.554 361.606 199.095V208.919C361.62 211.07 361.933 212.697 362.545 213.8V214.156H356.168ZM350.948 209.946C351.88 209.946 352.739 209.75 353.525 209.359C354.311 208.954 354.894 208.417 355.272 207.746V203.85H352.913C349.754 203.85 348.072 204.898 347.868 206.992L347.847 207.348C347.847 208.103 348.123 208.724 348.677 209.213C349.23 209.701 349.987 209.946 350.948 209.946Z" fill="white"/>
<path d="M374.011 185.92V191.491H378.051V195.932H374.011V207.244C374.011 208.082 374.178 208.682 374.513 209.045C374.848 209.408 375.489 209.59 376.435 209.59C377.134 209.59 377.753 209.541 378.291 209.443V214.031C377.054 214.394 375.78 214.575 374.469 214.575C370.043 214.575 367.786 212.432 367.699 208.144V195.932H364.248V191.491H367.699V185.92H374.011Z" fill="white"/>
<path d="M379.929 202.614C379.929 200.366 380.381 198.362 381.283 196.603C382.186 194.843 383.482 193.481 385.171 192.518C386.874 191.554 388.847 191.073 391.089 191.073C394.278 191.073 396.877 192.008 398.886 193.879C400.91 195.751 402.038 198.292 402.271 201.504L402.315 203.054C402.315 206.531 401.303 209.324 399.279 211.433C397.256 213.528 394.54 214.575 391.133 214.575C387.726 214.575 385.003 213.528 382.965 211.433C380.941 209.338 379.929 206.49 379.929 202.887V202.614ZM386.241 203.054C386.241 205.205 386.663 206.853 387.508 207.998C388.352 209.129 389.561 209.694 391.133 209.694C392.662 209.694 393.856 209.136 394.715 208.019C395.574 206.888 396.003 205.086 396.003 202.614C396.003 200.506 395.574 198.872 394.715 197.713C393.856 196.554 392.647 195.974 391.089 195.974C389.546 195.974 388.352 196.554 387.508 197.713C386.663 198.858 386.241 200.638 386.241 203.054Z" fill="white"/>
<path d="M419.481 197.168C418.622 197.056 417.865 197.001 417.21 197.001C414.822 197.001 413.257 197.776 412.514 199.326V214.156H406.203V191.491H412.165L412.34 194.194C413.606 192.113 415.361 191.073 417.603 191.073C418.302 191.073 418.957 191.163 419.568 191.345L419.481 197.168Z" fill="white"/>
<path d="M125.825 142.613C108.015 161.489 108.346 191.233 126.818 209.706C145.628 228.515 176.124 228.515 194.934 209.706C213.743 190.896 213.743 160.4 194.934 141.59C176.452 123.109 146.688 122.786 127.812 140.624C130.027 139.296 132.94 139.586 134.849 141.495L146.401 153.047C156.386 146.851 169.672 148.087 178.34 156.755C182.658 161.073 185.131 166.537 185.761 172.169L188.001 172.404C191.166 172.737 193.463 175.573 193.13 178.738C192.797 181.904 189.961 184.2 186.796 183.867L184.471 183.623C183.857 185.377 183.05 187.078 182.047 188.693L194.814 201.46C197.064 203.71 197.064 207.359 194.814 209.61C192.563 211.861 188.914 211.861 186.663 209.61L173.949 196.896C163.933 203.291 150.479 202.114 141.73 193.365C137.515 189.15 135.058 183.844 134.357 178.356L133.832 178.301C130.666 177.968 128.37 175.132 128.703 171.967C129.035 168.801 131.871 166.505 135.037 166.837L135.467 166.882C136.129 164.89 137.039 162.961 138.199 161.146L126.698 149.645C124.791 147.738 124.5 144.827 125.825 142.613Z" fill="#09ADB9"/>
<path d="M174.294 181.652C174.294 184.925 173.076 187.487 170.64 189.338C168.204 191.19 164.613 192.116 159.869 192.116C158.074 192.116 156.408 191.987 154.869 191.728C153.33 191.47 152.005 191.082 150.894 190.566C149.826 190.006 148.971 189.317 148.33 188.499C147.731 187.681 147.432 186.712 147.432 185.592C147.432 184.559 147.646 183.697 148.073 183.008C148.501 182.276 149.014 181.673 149.612 181.2C150.851 181.889 152.262 182.513 153.843 183.073C155.467 183.59 157.326 183.848 159.421 183.848C160.746 183.848 161.75 183.654 162.434 183.267C163.16 182.879 163.524 182.362 163.524 181.716C163.524 181.114 163.267 180.64 162.754 180.295C162.241 179.951 161.387 179.671 160.19 179.456L158.267 179.068C154.548 178.336 151.77 177.195 149.933 175.645C148.137 174.052 147.24 171.791 147.24 168.863C147.24 167.269 147.582 165.827 148.266 164.535C148.95 163.243 149.911 162.167 151.151 161.305C152.39 160.444 153.865 159.777 155.574 159.303C157.326 158.829 159.25 158.592 161.344 158.592C162.925 158.592 164.4 158.722 165.767 158.98C167.178 159.195 168.396 159.54 169.422 160.013C170.447 160.487 171.259 161.111 171.858 161.887C172.456 162.619 172.755 163.501 172.755 164.535C172.755 165.525 172.563 166.387 172.178 167.119C171.836 167.808 171.388 168.389 170.832 168.863C170.49 168.647 169.977 168.432 169.293 168.217C168.61 167.958 167.862 167.743 167.05 167.571C166.238 167.355 165.404 167.183 164.549 167.054C163.737 166.925 162.989 166.86 162.306 166.86C160.895 166.86 159.805 167.032 159.036 167.377C158.267 167.678 157.882 168.174 157.882 168.863C157.882 169.336 158.096 169.724 158.523 170.025C158.951 170.327 159.763 170.607 160.959 170.865L162.947 171.317C167.05 172.264 169.956 173.578 171.665 175.257C173.418 176.894 174.294 179.025 174.294 181.652Z" fill="#09ADB9"/>
<path d="M110.811 298.26C110.811 297.486 110.537 296.893 109.99 296.483C109.443 296.064 108.459 295.626 107.037 295.171C105.615 294.706 104.49 294.25 103.66 293.803C101.4 292.582 100.27 290.937 100.27 288.868C100.27 287.792 100.57 286.835 101.172 285.997C101.783 285.149 102.653 284.488 103.783 284.014C104.923 283.54 106.199 283.303 107.611 283.303C109.033 283.303 110.3 283.563 111.412 284.083C112.524 284.593 113.385 285.318 113.996 286.256C114.616 287.195 114.926 288.262 114.926 289.456H110.824C110.824 288.544 110.537 287.838 109.963 287.337C109.389 286.826 108.582 286.571 107.543 286.571C106.54 286.571 105.761 286.785 105.205 287.213C104.649 287.633 104.371 288.189 104.371 288.881C104.371 289.529 104.695 290.071 105.342 290.508C105.998 290.946 106.96 291.356 108.227 291.739C110.56 292.441 112.26 293.311 113.326 294.35C114.393 295.389 114.926 296.684 114.926 298.233C114.926 299.956 114.274 301.309 112.971 302.294C111.667 303.269 109.913 303.756 107.707 303.756C106.176 303.756 104.781 303.478 103.523 302.922C102.266 302.357 101.304 301.587 100.639 300.612C99.9823 299.637 99.6543 298.506 99.6543 297.221H103.77C103.77 299.418 105.082 300.516 107.707 300.516C108.682 300.516 109.443 300.32 109.99 299.928C110.537 299.527 110.811 298.971 110.811 298.26ZM126.315 301.979C125.339 303.164 123.99 303.756 122.268 303.756C120.682 303.756 119.469 303.301 118.631 302.389C117.801 301.478 117.378 300.143 117.359 298.383V288.69H121.311V298.247C121.311 299.787 122.012 300.557 123.416 300.557C124.756 300.557 125.676 300.092 126.178 299.163V288.69H130.143V303.483H126.424L126.315 301.979ZM136.76 288.69L136.883 290.399C137.94 289.077 139.357 288.417 141.135 288.417C142.703 288.417 143.869 288.877 144.635 289.797C145.4 290.718 145.792 292.094 145.811 293.926V303.483H141.859V294.022C141.859 293.184 141.677 292.577 141.313 292.204C140.948 291.821 140.342 291.629 139.494 291.629C138.382 291.629 137.548 292.103 136.992 293.051V303.483H133.041V288.69H136.76ZM156.83 299.395C156.83 298.912 156.589 298.534 156.106 298.26C155.632 297.978 154.866 297.727 153.809 297.508C150.29 296.77 148.531 295.275 148.531 293.024C148.531 291.712 149.074 290.618 150.158 289.743C151.252 288.859 152.678 288.417 154.438 288.417C156.315 288.417 157.815 288.859 158.936 289.743C160.066 290.627 160.631 291.775 160.631 293.188H156.68C156.68 292.623 156.497 292.158 156.133 291.794C155.768 291.42 155.199 291.233 154.424 291.233C153.759 291.233 153.244 291.383 152.879 291.684C152.514 291.985 152.332 292.368 152.332 292.833C152.332 293.27 152.537 293.626 152.947 293.899C153.367 294.163 154.068 294.396 155.053 294.596C156.037 294.788 156.867 295.006 157.541 295.253C159.628 296.018 160.672 297.344 160.672 299.231C160.672 300.58 160.093 301.674 158.936 302.512C157.778 303.342 156.283 303.756 154.451 303.756C153.212 303.756 152.109 303.538 151.143 303.1C150.186 302.654 149.434 302.047 148.887 301.282C148.34 300.507 148.066 299.673 148.066 298.78H151.813C151.849 299.482 152.109 300.019 152.592 300.393C153.075 300.767 153.722 300.954 154.533 300.954C155.29 300.954 155.859 300.812 156.242 300.53C156.634 300.238 156.83 299.86 156.83 299.395ZM167.084 290.303C168.132 289.045 169.449 288.417 171.035 288.417C174.244 288.417 175.871 290.281 175.916 294.008V303.483H171.965V294.118C171.965 293.27 171.783 292.646 171.418 292.245C171.053 291.835 170.447 291.629 169.6 291.629C168.442 291.629 167.604 292.076 167.084 292.969V303.483H163.133V282.483H167.084V290.303ZM183.066 303.483H179.102V288.69H183.066V303.483ZM178.869 284.862C178.869 284.269 179.065 283.782 179.457 283.399C179.858 283.016 180.4 282.825 181.084 282.825C181.759 282.825 182.296 283.016 182.697 283.399C183.098 283.782 183.299 284.269 183.299 284.862C183.299 285.463 183.094 285.956 182.684 286.338C182.283 286.721 181.749 286.913 181.084 286.913C180.419 286.913 179.881 286.721 179.471 286.338C179.07 285.956 178.869 285.463 178.869 284.862ZM189.971 288.69L190.094 290.399C191.151 289.077 192.568 288.417 194.346 288.417C195.913 288.417 197.08 288.877 197.846 289.797C198.611 290.718 199.003 292.094 199.022 293.926V303.483H195.07V294.022C195.07 293.184 194.888 292.577 194.523 292.204C194.159 291.821 193.553 291.629 192.705 291.629C191.593 291.629 190.759 292.103 190.203 293.051V303.483H186.252V288.69H189.971ZM208.838 303.756C206.669 303.756 204.9 303.091 203.533 301.76C202.175 300.43 201.496 298.657 201.496 296.442V296.059C201.496 294.573 201.783 293.247 202.357 292.081C202.932 290.905 203.743 290.003 204.791 289.374C205.848 288.736 207.051 288.417 208.4 288.417C210.424 288.417 212.014 289.055 213.172 290.331C214.339 291.607 214.922 293.416 214.922 295.758V297.372H205.502C205.63 298.338 206.012 299.113 206.65 299.696C207.298 300.279 208.113 300.571 209.098 300.571C210.62 300.571 211.809 300.019 212.666 298.917L214.607 301.09C214.015 301.929 213.213 302.585 212.201 303.059C211.19 303.524 210.068 303.756 208.838 303.756ZM208.387 291.616C207.603 291.616 206.965 291.88 206.473 292.409C205.99 292.937 205.68 293.694 205.543 294.678H211.039V294.364C211.021 293.489 210.784 292.814 210.328 292.34C209.872 291.857 209.225 291.616 208.387 291.616Z" fill="white"/>
<path opacity="0.35" d="M457.378 44.3162H474.044C475.241 44.3162 476.211 45.2862 476.211 46.4828V52.4828C476.211 53.6794 475.241 54.6495 474.044 54.6495H457.378C456.181 54.6495 455.211 53.6794 455.211 52.4828V46.4828C455.211 45.2862 456.181 44.3162 457.378 44.3162Z" stroke="white"/>
<path opacity="0.4" d="M477.711 47.4829V51.4829C478.516 51.1441 479.039 50.356 479.039 49.4829C479.039 48.6098 478.516 47.8217 477.711 47.4829Z" fill="white"/>
<path d="M456.711 47.1495C456.711 46.4131 457.308 45.8162 458.044 45.8162H473.378C474.114 45.8162 474.711 46.4131 474.711 47.1495V51.8162C474.711 52.5525 474.114 53.1495 473.378 53.1495H458.044C457.308 53.1495 456.711 52.5525 456.711 51.8162V47.1495Z" fill="white"/>
<path fill-rule="evenodd" clip-rule="evenodd" d="M442.041 46.0908C444.257 46.0909 446.388 46.9423 447.994 48.4691C448.115 48.587 448.308 48.5855 448.427 48.4658L449.583 47.2991C449.644 47.2384 449.677 47.1562 449.677 47.0706C449.676 46.985 449.642 46.9031 449.581 46.8431C445.366 42.8036 438.716 42.8036 434.501 46.8431C434.44 46.9031 434.405 46.9849 434.404 47.0705C434.404 47.1561 434.437 47.2384 434.498 47.2991L435.654 48.4658C435.773 48.5857 435.966 48.5872 436.087 48.4691C437.693 46.9422 439.825 46.0908 442.041 46.0908ZM442.041 49.8865C443.258 49.8864 444.432 50.3389 445.335 51.1561C445.457 51.2721 445.649 51.2696 445.768 51.1505L446.923 49.9838C446.984 49.9226 447.017 49.8396 447.017 49.7533C447.016 49.6671 446.98 49.5847 446.918 49.5248C444.17 46.9684 439.914 46.9684 437.166 49.5248C437.104 49.5847 437.068 49.6671 437.068 49.7534C437.067 49.8397 437.101 49.9227 437.162 49.9838L438.316 51.1505C438.435 51.2696 438.627 51.2721 438.749 51.1561C439.651 50.3395 440.824 49.887 442.041 49.8865ZM444.354 52.4403C444.356 52.5268 444.322 52.6102 444.26 52.6708L442.263 54.6865C442.204 54.7457 442.124 54.779 442.041 54.779C441.958 54.779 441.878 54.7457 441.819 54.6865L439.822 52.6708C439.76 52.6101 439.726 52.5267 439.728 52.4402C439.73 52.3537 439.767 52.2718 439.831 52.2138C441.107 51.1349 442.975 51.1349 444.251 52.2138C444.315 52.2718 444.352 52.3538 444.354 52.4403Z" fill="white"/>
<path fill-rule="evenodd" clip-rule="evenodd" d="M428.378 44.1494H427.378C426.826 44.1494 426.378 44.5971 426.378 45.1494V53.8161C426.378 54.3684 426.826 54.8161 427.378 54.8161H428.378C428.93 54.8161 429.378 54.3684 429.378 53.8161V45.1494C429.378 44.5971 428.93 44.1494 428.378 44.1494ZM422.711 46.4827H423.711C424.264 46.4827 424.711 46.9305 424.711 47.4827V53.8161C424.711 54.3684 424.264 54.8161 423.711 54.8161H422.711C422.159 54.8161 421.711 54.3684 421.711 53.8161V47.4827C421.711 46.9305 422.159 46.4827 422.711 46.4827ZM419.045 48.8161H418.045C417.492 48.8161 417.045 49.2638 417.045 49.8161V53.8161C417.045 54.3684 417.492 54.8161 418.045 54.8161H419.045C419.597 54.8161 420.045 54.3684 420.045 53.8161V49.8161C420.045 49.2638 419.597 48.8161 419.045 48.8161ZM414.378 50.8161H413.378C412.826 50.8161 412.378 51.2638 412.378 51.8161V53.8161C412.378 54.3684 412.826 54.8161 413.378 54.8161H414.378C414.93 54.8161 415.378 54.3684 415.378 53.8161V51.8161C415.378 51.2638 414.93 50.8161 414.378 50.8161Z" fill="white"/>
<path d="M72.0313 54.7392C74.7193 54.7392 76.316 52.6372 76.316 49.0776C76.316 47.7373 76.0596 46.6094 75.5689 45.7378C74.8585 44.3828 73.6353 43.6504 72.0899 43.6504C69.7901 43.6504 68.1641 45.1958 68.1641 47.3638C68.1641 49.3999 69.629 50.8794 71.6431 50.8794C72.8809 50.8794 73.8843 50.3008 74.3824 49.2974H74.4044C74.4044 49.2974 74.4337 49.2974 74.441 49.2974C74.4556 49.2974 74.5069 49.2974 74.5069 49.2974C74.5069 51.7143 73.5914 53.1572 72.046 53.1572C71.1378 53.1572 70.4346 52.6592 70.1929 51.8608H68.3106C68.6256 53.5967 70.0977 54.7392 72.0313 54.7392ZM72.0972 49.3779C70.8814 49.3779 70.0172 48.5137 70.0172 47.3052C70.0172 46.126 70.9254 45.2251 72.1046 45.2251C73.2838 45.2251 74.192 46.1406 74.192 47.3345C74.192 48.5137 73.3057 49.3779 72.0972 49.3779Z" fill="white"/>
<path d="M79.4072 54.6367C80.103 54.6367 80.5791 54.1387 80.5791 53.4795C80.5791 52.813 80.103 52.3223 79.4072 52.3223C78.7187 52.3223 78.2354 52.813 78.2354 53.4795C78.2354 54.1387 78.7187 54.6367 79.4072 54.6367ZM79.4072 49.1435C80.103 49.1435 80.5791 48.6528 80.5791 47.9936C80.5791 47.3271 80.103 46.8364 79.4072 46.8364C78.7187 46.8364 78.2354 47.3271 78.2354 47.9936C78.2354 48.6528 78.7187 49.1435 79.4072 49.1435Z" fill="white"/>
<path d="M87.435 54.4829H89.2441V52.5127H90.6723V50.916H89.2441V43.9141H86.5781C84.7104 46.7266 83.2236 49.0776 82.2715 50.8281V52.5127H87.435V54.4829ZM84.0219 50.8501C85.2524 48.6821 86.351 46.9463 87.3618 45.4521H87.4643V50.96H84.0219V50.8501Z" fill="white"/>
<path d="M94.7012 54.4829H96.5906V43.9141H94.7086L91.9473 45.8476V47.6641L94.5767 45.8183H94.7012V54.4829Z" fill="white"/>
<path d="M452.711 270.483H98.7109C92.6358 270.483 87.7109 275.408 87.7109 281.483V308.483C87.7109 314.558 92.6358 319.483 98.7109 319.483H452.711C458.786 319.483 463.711 314.558 463.711 308.483V281.483C463.711 275.408 458.786 270.483 452.711 270.483Z" stroke="#09ADB9" stroke-width="2"/>
<path d="M452.711 270.483H98.7109C92.6358 270.483 87.7109 275.408 87.7109 281.483V308.483C87.7109 314.558 92.6358 319.483 98.7109 319.483H452.711C458.786 319.483 463.711 314.558 463.711 308.483V281.483C463.711 275.408 458.786 270.483 452.711 270.483Z" stroke="#09ADB9" stroke-width="2"/>
<path d="M394.711 340.483H156.711C150.636 340.483 145.711 345.408 145.711 351.483V378.483C145.711 384.558 150.636 389.483 156.711 389.483H394.711C400.786 389.483 405.711 384.558 405.711 378.483V351.483C405.711 345.408 400.786 340.483 394.711 340.483Z" fill="#09ADB9" stroke="#09ADB9" stroke-width="2"/>
<path d="M203.654 372.626C202.916 373.51 201.872 374.198 200.523 374.69C199.175 375.173 197.68 375.415 196.039 375.415C194.316 375.415 192.803 375.041 191.5 374.294C190.206 373.537 189.203 372.443 188.492 371.012C187.79 369.581 187.43 367.9 187.412 365.967V364.614C187.412 362.627 187.745 360.909 188.41 359.46C189.085 358.001 190.051 356.889 191.309 356.124C192.576 355.349 194.057 354.962 195.752 354.962C198.113 354.962 199.958 355.527 201.289 356.657C202.62 357.778 203.408 359.414 203.654 361.565H199.662C199.48 360.426 199.074 359.592 198.445 359.063C197.826 358.534 196.969 358.27 195.875 358.27C194.481 358.27 193.419 358.794 192.69 359.842C191.96 360.891 191.591 362.449 191.582 364.518V365.79C191.582 367.877 191.979 369.454 192.772 370.52C193.565 371.587 194.727 372.12 196.258 372.12C197.798 372.12 198.897 371.792 199.553 371.135V367.704H195.82V364.682H203.654V372.626Z" fill="white"/>
<path d="M213.539 375.415C211.37 375.415 209.602 374.749 208.234 373.419C206.876 372.088 206.197 370.315 206.197 368.1V367.717C206.197 366.232 206.484 364.906 207.059 363.739C207.633 362.563 208.444 361.661 209.492 361.032C210.55 360.394 211.753 360.075 213.102 360.075C215.125 360.075 216.716 360.713 217.873 361.989C219.04 363.265 219.623 365.074 219.623 367.417V369.03H210.203C210.331 369.996 210.714 370.771 211.352 371.354C211.999 371.937 212.815 372.229 213.799 372.229C215.321 372.229 216.51 371.678 217.367 370.575L219.309 372.749C218.716 373.587 217.914 374.243 216.902 374.717C215.891 375.182 214.77 375.415 213.539 375.415ZM213.088 363.274C212.304 363.274 211.666 363.538 211.174 364.067C210.691 364.596 210.381 365.352 210.244 366.337H215.74V366.022C215.722 365.147 215.485 364.473 215.029 363.999C214.574 363.516 213.926 363.274 213.088 363.274Z" fill="white"/>
<path d="M225.516 360.348L225.639 362.057C226.696 360.736 228.113 360.075 229.891 360.075C231.458 360.075 232.625 360.535 233.391 361.456C234.156 362.376 234.548 363.753 234.566 365.585V375.141H230.615V365.68C230.615 364.842 230.433 364.236 230.068 363.862C229.704 363.479 229.098 363.288 228.25 363.288C227.138 363.288 226.304 363.762 225.748 364.71V375.141H221.797V360.348H225.516Z" fill="white"/>
<path d="M244.383 375.415C242.214 375.415 240.445 374.749 239.078 373.419C237.72 372.088 237.041 370.315 237.041 368.1V367.717C237.041 366.232 237.328 364.906 237.902 363.739C238.477 362.563 239.288 361.661 240.336 361.032C241.393 360.394 242.596 360.075 243.945 360.075C245.969 360.075 247.559 360.713 248.717 361.989C249.884 363.265 250.467 365.074 250.467 367.417V369.03H241.047C241.175 369.996 241.557 370.771 242.195 371.354C242.843 371.937 243.658 372.229 244.643 372.229C246.165 372.229 247.354 371.678 248.211 370.575L250.152 372.749C249.56 373.587 248.758 374.243 247.746 374.717C246.734 375.182 245.613 375.415 244.383 375.415ZM243.932 363.274C243.148 363.274 242.51 363.538 242.018 364.067C241.535 364.596 241.225 365.352 241.088 366.337H246.584V366.022C246.566 365.147 246.329 364.473 245.873 363.999C245.417 363.516 244.77 363.274 243.932 363.274Z" fill="white"/>
<path d="M261.035 364.053C260.497 363.98 260.023 363.944 259.613 363.944C258.119 363.944 257.139 364.45 256.674 365.462V375.141H252.723V360.348H256.455L256.565 362.112C257.357 360.754 258.456 360.075 259.859 360.075C260.297 360.075 260.707 360.134 261.09 360.253L261.035 364.053Z" fill="white"/>
<path d="M271.111 375.141C270.929 374.786 270.797 374.344 270.715 373.815C269.758 374.881 268.514 375.415 266.982 375.415C265.533 375.415 264.33 374.995 263.373 374.157C262.425 373.318 261.951 372.261 261.951 370.985C261.951 369.417 262.53 368.214 263.688 367.376C264.854 366.537 266.536 366.113 268.732 366.104H270.551V365.256C270.551 364.573 270.373 364.026 270.018 363.616C269.671 363.206 269.12 363.001 268.363 363.001C267.698 363.001 267.174 363.16 266.791 363.479C266.417 363.798 266.231 364.236 266.231 364.792H262.279C262.279 363.935 262.544 363.142 263.072 362.413C263.601 361.684 264.348 361.114 265.315 360.704C266.281 360.284 267.365 360.075 268.568 360.075C270.391 360.075 271.836 360.535 272.902 361.456C273.978 362.367 274.516 363.652 274.516 365.311V371.723C274.525 373.127 274.721 374.189 275.104 374.909V375.141H271.111ZM267.844 372.393C268.427 372.393 268.965 372.266 269.457 372.01C269.949 371.746 270.314 371.395 270.551 370.958V368.415H269.074C267.096 368.415 266.044 369.098 265.916 370.465L265.902 370.698C265.902 371.19 266.076 371.596 266.422 371.915C266.768 372.234 267.242 372.393 267.844 372.393Z" fill="white"/>
<path d="M282.281 356.712V360.348H284.811V363.247H282.281V370.629C282.281 371.176 282.386 371.568 282.596 371.805C282.805 372.042 283.206 372.161 283.799 372.161C284.236 372.161 284.624 372.129 284.961 372.065V375.059C284.186 375.296 283.389 375.415 282.568 375.415C279.798 375.415 278.385 374.016 278.33 371.217V363.247H276.17V360.348H278.33V356.712H282.281Z" fill="white"/>
<path d="M293.82 375.415C291.651 375.415 289.883 374.749 288.516 373.419C287.158 372.088 286.479 370.315 286.479 368.1V367.717C286.479 366.232 286.766 364.906 287.34 363.739C287.914 362.563 288.725 361.661 289.773 361.032C290.831 360.394 292.034 360.075 293.383 360.075C295.406 360.075 296.997 360.713 298.154 361.989C299.321 363.265 299.904 365.074 299.904 367.417V369.03H290.484C290.612 369.996 290.995 370.771 291.633 371.354C292.28 371.937 293.095 372.229 294.079 372.229C295.601 372.229 296.791 371.678 297.648 370.575L299.59 372.749C298.997 373.587 298.195 374.243 297.184 374.717C296.172 375.182 295.051 375.415 293.82 375.415ZM293.368 363.274C292.584 363.274 291.946 363.538 291.454 364.067C290.971 364.596 290.662 365.352 290.525 366.337H296.022V366.022C296.003 365.147 295.766 364.473 295.311 363.999C294.855 363.516 294.207 363.274 293.368 363.274Z" fill="white"/>
<path d="M317.705 375.141C317.523 374.786 317.391 374.344 317.309 373.815C316.352 374.881 315.107 375.415 313.576 375.415C312.127 375.415 310.924 374.995 309.967 374.157C309.019 373.318 308.545 372.261 308.545 370.985C308.545 369.417 309.124 368.214 310.281 367.376C311.448 366.537 313.13 366.113 315.326 366.104H317.145V365.256C317.145 364.573 316.967 364.026 316.611 363.616C316.265 363.206 315.714 363.001 314.957 363.001C314.292 363.001 313.768 363.16 313.385 363.479C313.011 363.798 312.824 364.236 312.824 364.792H308.873C308.873 363.935 309.137 363.142 309.666 362.413C310.195 361.684 310.942 361.114 311.908 360.704C312.874 360.284 313.959 360.075 315.162 360.075C316.985 360.075 318.43 360.535 319.496 361.456C320.572 362.367 321.109 363.652 321.109 365.311V371.723C321.119 373.127 321.315 374.189 321.697 374.909V375.141H317.705ZM314.438 372.393C315.021 372.393 315.559 372.266 316.051 372.01C316.543 371.746 316.908 371.395 317.145 370.958V368.415H315.668C313.69 368.415 312.637 369.098 312.51 370.465L312.496 370.698C312.496 371.19 312.669 371.596 313.016 371.915C313.362 372.234 313.836 372.393 314.438 372.393Z" fill="white"/>
<path d="M347.578 375.141H343.477V366.61H335.479V375.141H331.377V355.235H335.479V363.301H343.477V355.235H347.578V375.141Z" fill="white"/>
<path d="M355.084 375.141H351.119V360.348H355.084V375.141ZM350.887 356.52C350.887 355.928 351.083 355.44 351.475 355.057C351.876 354.674 352.418 354.483 353.102 354.483C353.776 354.483 354.314 354.674 354.715 355.057C355.116 355.44 355.316 355.928 355.316 356.52C355.316 357.122 355.111 357.614 354.701 357.997C354.3 358.379 353.767 358.571 353.102 358.571C352.436 358.571 351.899 358.379 351.488 357.997C351.087 357.614 350.887 357.122 350.887 356.52Z" fill="white"/>
<path d="M363.082 356.712V360.348H365.611V363.247H363.082V370.629C363.082 371.176 363.187 371.568 363.397 371.805C363.606 372.042 364.007 372.161 364.6 372.161C365.037 372.161 365.425 372.129 365.762 372.065V375.059C364.987 375.296 364.19 375.415 363.369 375.415C360.598 375.415 359.186 374.016 359.131 371.217V363.247H356.971V360.348H359.131V356.712H363.082Z" fill="white"/>
<path d="M162.961 510.571L168.156 500.577H171.137L164.273 513.059V520.483H161.649V513.059L154.785 500.577H157.793L162.961 510.571ZM171.738 512.95C171.738 511.501 172.021 510.197 172.586 509.04C173.16 507.882 173.953 506.989 174.965 506.36C175.986 505.731 177.148 505.417 178.451 505.417C180.466 505.417 182.093 506.114 183.332 507.508C184.581 508.903 185.205 510.758 185.205 513.073V513.251C185.205 514.691 184.927 515.985 184.371 517.133C183.824 518.273 183.036 519.161 182.006 519.799C180.985 520.437 179.809 520.756 178.479 520.756C176.473 520.756 174.846 520.059 173.598 518.665C172.358 517.27 171.738 515.424 171.738 513.128V512.95ZM174.281 513.251C174.281 514.891 174.66 516.208 175.416 517.202C176.182 518.195 177.203 518.692 178.479 518.692C179.764 518.692 180.785 518.191 181.541 517.188C182.298 516.176 182.676 514.764 182.676 512.95C182.676 511.327 182.288 510.015 181.514 509.012C180.748 508.001 179.727 507.495 178.451 507.495C177.203 507.495 176.195 507.991 175.43 508.985C174.664 509.978 174.281 511.4 174.281 513.251ZM197.51 519.02C196.525 520.178 195.081 520.756 193.176 520.756C191.599 520.756 190.396 520.301 189.566 519.389C188.746 518.469 188.331 517.111 188.322 515.315V505.69H190.852V515.247C190.852 517.489 191.763 518.61 193.586 518.61C195.518 518.61 196.803 517.89 197.441 516.45V505.69H199.971V520.483H197.565L197.51 519.02ZM210.977 507.96C210.594 507.896 210.179 507.864 209.732 507.864C208.074 507.864 206.948 508.57 206.356 509.983V520.483H203.826V505.69H206.287L206.328 507.399C207.158 506.077 208.333 505.417 209.856 505.417C210.348 505.417 210.721 505.48 210.977 505.608V507.96ZM226.522 511.61C224.27 510.963 222.63 510.17 221.6 509.231C220.579 508.283 220.068 507.116 220.068 505.731C220.068 504.163 220.693 502.869 221.941 501.848C223.199 500.818 224.831 500.303 226.836 500.303C228.203 500.303 229.42 500.568 230.486 501.096C231.562 501.625 232.391 502.354 232.975 503.284C233.567 504.213 233.863 505.23 233.863 506.333H231.225C231.225 505.129 230.842 504.186 230.076 503.503C229.311 502.81 228.231 502.463 226.836 502.463C225.542 502.463 224.53 502.751 223.801 503.325C223.081 503.89 222.721 504.678 222.721 505.69C222.721 506.501 223.063 507.189 223.746 507.754C224.439 508.31 225.61 508.821 227.26 509.286C228.919 509.751 230.213 510.266 231.143 510.831C232.081 511.387 232.774 512.038 233.221 512.786C233.676 513.533 233.904 514.413 233.904 515.424C233.904 517.038 233.275 518.332 232.018 519.307C230.76 520.273 229.078 520.756 226.973 520.756C225.606 520.756 224.329 520.497 223.145 519.977C221.96 519.448 221.044 518.728 220.397 517.817C219.759 516.906 219.44 515.871 219.44 514.713H222.078C222.078 515.917 222.52 516.869 223.404 517.571C224.298 518.264 225.487 518.61 226.973 518.61C228.358 518.61 229.42 518.327 230.158 517.762C230.897 517.197 231.266 516.427 231.266 515.452C231.266 514.476 230.924 513.725 230.24 513.196C229.557 512.658 228.317 512.129 226.522 511.61ZM236.215 512.95C236.215 511.501 236.497 510.197 237.063 509.04C237.637 507.882 238.43 506.989 239.441 506.36C240.462 505.731 241.624 505.417 242.928 505.417C244.942 505.417 246.569 506.114 247.809 507.508C249.057 508.903 249.682 510.758 249.682 513.073V513.251C249.682 514.691 249.404 515.985 248.848 517.133C248.301 518.273 247.512 519.161 246.482 519.799C245.462 520.437 244.286 520.756 242.955 520.756C240.95 520.756 239.323 520.059 238.074 518.665C236.835 517.27 236.215 515.424 236.215 513.128V512.95ZM238.758 513.251C238.758 514.891 239.136 516.208 239.893 517.202C240.658 518.195 241.679 518.692 242.955 518.692C244.24 518.692 245.261 518.191 246.018 517.188C246.774 516.176 247.152 514.764 247.152 512.95C247.152 511.327 246.765 510.015 245.99 509.012C245.225 508.001 244.204 507.495 242.928 507.495C241.679 507.495 240.672 507.991 239.906 508.985C239.141 509.978 238.758 511.4 238.758 513.251ZM255.246 505.69L255.328 507.549C256.458 506.128 257.935 505.417 259.758 505.417C262.884 505.417 264.461 507.18 264.488 510.708V520.483H261.959V510.694C261.95 509.628 261.704 508.839 261.221 508.329C260.747 507.818 260.004 507.563 258.992 507.563C258.172 507.563 257.452 507.782 256.832 508.219C256.212 508.657 255.729 509.231 255.383 509.942V520.483H252.854V505.69H255.246ZM267.701 512.963C267.701 510.657 268.234 508.825 269.301 507.467C270.367 506.1 271.78 505.417 273.539 505.417C275.344 505.417 276.752 506.055 277.764 507.331L277.887 505.69H280.197V520.128C280.197 522.042 279.628 523.55 278.488 524.653C277.358 525.756 275.836 526.307 273.922 526.307C272.856 526.307 271.812 526.079 270.791 525.624C269.77 525.168 268.991 524.544 268.453 523.751L269.766 522.233C270.85 523.573 272.176 524.243 273.744 524.243C274.975 524.243 275.932 523.896 276.615 523.204C277.308 522.511 277.654 521.536 277.654 520.278V519.006C276.643 520.173 275.262 520.756 273.512 520.756C271.78 520.756 270.376 520.059 269.301 518.665C268.234 517.27 267.701 515.37 267.701 512.963ZM270.244 513.251C270.244 514.919 270.586 516.231 271.27 517.188C271.953 518.136 272.91 518.61 274.141 518.61C275.736 518.61 276.907 517.885 277.654 516.436V509.682C276.88 508.269 275.718 507.563 274.168 507.563C272.938 507.563 271.976 508.042 271.283 508.999C270.591 509.956 270.244 511.373 270.244 513.251ZM306.666 520.483H304.027L294.006 505.143V520.483H291.367V500.577H294.006L304.055 515.985V500.577H306.666V520.483ZM320.065 520.483C319.919 520.191 319.8 519.672 319.709 518.924C318.533 520.146 317.13 520.756 315.498 520.756C314.04 520.756 312.841 520.346 311.902 519.526C310.973 518.697 310.508 517.648 310.508 516.381C310.508 514.841 311.091 513.647 312.258 512.799C313.434 511.943 315.083 511.514 317.207 511.514H319.668V510.352C319.668 509.468 319.404 508.766 318.875 508.247C318.346 507.718 317.567 507.454 316.537 507.454C315.635 507.454 314.878 507.682 314.268 508.137C313.657 508.593 313.352 509.144 313.352 509.792H310.809C310.809 509.053 311.068 508.342 311.588 507.659C312.117 506.966 312.828 506.419 313.721 506.018C314.623 505.617 315.612 505.417 316.688 505.417C318.392 505.417 319.727 505.845 320.693 506.702C321.66 507.549 322.161 508.721 322.197 510.215V517.024C322.197 518.382 322.371 519.462 322.717 520.264V520.483H320.065ZM315.867 518.555C316.66 518.555 317.412 518.35 318.123 517.94C318.834 517.53 319.349 516.997 319.668 516.34V513.305H317.686C314.587 513.305 313.037 514.212 313.037 516.026C313.037 516.819 313.301 517.439 313.83 517.885C314.359 518.332 315.038 518.555 315.867 518.555ZM328.541 505.69L328.609 507.331C329.694 506.055 331.157 505.417 332.998 505.417C335.067 505.417 336.475 506.21 337.223 507.795C337.715 507.085 338.353 506.51 339.137 506.073C339.93 505.635 340.864 505.417 341.94 505.417C345.184 505.417 346.834 507.135 346.889 510.571V520.483H344.359V510.721C344.359 509.664 344.118 508.876 343.635 508.356C343.152 507.827 342.341 507.563 341.201 507.563C340.262 507.563 339.483 507.846 338.863 508.411C338.244 508.967 337.884 509.719 337.783 510.667V520.483H335.24V510.79C335.24 508.639 334.188 507.563 332.082 507.563C330.423 507.563 329.288 508.269 328.678 509.682V520.483H326.149V505.69H328.541ZM356.856 520.756C354.85 520.756 353.219 520.1 351.961 518.788C350.703 517.466 350.074 515.702 350.074 513.497V513.032C350.074 511.564 350.352 510.256 350.908 509.108C351.473 507.95 352.257 507.048 353.26 506.401C354.272 505.745 355.365 505.417 356.541 505.417C358.464 505.417 359.959 506.05 361.025 507.317C362.092 508.584 362.625 510.398 362.625 512.758V513.811H352.604C352.64 515.269 353.064 516.45 353.875 517.352C354.695 518.245 355.734 518.692 356.992 518.692C357.885 518.692 358.642 518.51 359.262 518.145C359.882 517.781 360.424 517.297 360.889 516.696L362.434 517.899C361.194 519.804 359.335 520.756 356.856 520.756ZM356.541 507.495C355.52 507.495 354.663 507.868 353.971 508.616C353.278 509.354 352.85 510.393 352.686 511.733H360.096V511.542C360.023 510.256 359.676 509.263 359.057 508.561C358.437 507.85 357.598 507.495 356.541 507.495ZM375.258 520.483H372.729V505.69H375.258V520.483ZM372.523 501.766C372.523 501.356 372.647 501.01 372.893 500.727C373.148 500.445 373.522 500.303 374.014 500.303C374.506 500.303 374.88 500.445 375.135 500.727C375.39 501.01 375.518 501.356 375.518 501.766C375.518 502.176 375.39 502.518 375.135 502.792C374.88 503.065 374.506 503.202 374.014 503.202C373.522 503.202 373.148 503.065 372.893 502.792C372.647 502.518 372.523 502.176 372.523 501.766ZM387.932 516.559C387.932 515.876 387.672 515.347 387.152 514.973C386.642 514.59 385.744 514.262 384.459 513.989C383.183 513.715 382.167 513.387 381.41 513.004C380.663 512.622 380.107 512.166 379.742 511.637C379.387 511.109 379.209 510.48 379.209 509.751C379.209 508.538 379.719 507.513 380.74 506.674C381.77 505.836 383.083 505.417 384.678 505.417C386.355 505.417 387.713 505.85 388.752 506.715C389.8 507.581 390.324 508.689 390.324 510.038H387.781C387.781 509.345 387.485 508.748 386.893 508.247C386.309 507.745 385.571 507.495 384.678 507.495C383.757 507.495 383.037 507.695 382.518 508.096C381.998 508.497 381.738 509.021 381.738 509.669C381.738 510.279 381.98 510.74 382.463 511.049C382.946 511.359 383.816 511.656 385.074 511.938C386.341 512.221 387.367 512.558 388.15 512.95C388.934 513.342 389.513 513.816 389.887 514.372C390.27 514.919 390.461 515.588 390.461 516.381C390.461 517.703 389.932 518.765 388.875 519.567C387.818 520.36 386.446 520.756 384.76 520.756C383.575 520.756 382.527 520.547 381.615 520.128C380.704 519.708 379.988 519.125 379.469 518.378C378.958 517.621 378.703 516.805 378.703 515.93H381.232C381.278 516.778 381.615 517.452 382.244 517.954C382.882 518.446 383.721 518.692 384.76 518.692C385.717 518.692 386.482 518.501 387.057 518.118C387.64 517.726 387.932 517.206 387.932 516.559Z" fill="white"/>
<path d="M98.9809 549.792H90.2695V573.483H84.4101V549.792H75.8164V545.045H98.9809V549.792ZM107.477 554.655C108.974 552.858 110.856 551.96 113.121 551.96C117.704 551.96 120.029 554.622 120.094 559.948V573.483H114.449V560.104C114.449 558.893 114.189 558.001 113.668 557.428C113.147 556.842 112.281 556.549 111.07 556.549C109.417 556.549 108.219 557.187 107.477 558.463V573.483H101.832V543.483H107.477V554.655ZM134.078 573.874C130.979 573.874 128.453 572.923 126.5 571.022C124.56 569.121 123.59 566.588 123.59 563.424V562.878C123.59 560.755 124 558.861 124.82 557.194C125.641 555.514 126.8 554.225 128.297 553.327C129.807 552.415 131.526 551.96 133.453 551.96C136.344 551.96 138.616 552.871 140.27 554.694C141.936 556.517 142.77 559.101 142.77 562.448V564.753H129.313C129.495 566.133 130.042 567.24 130.953 568.073C131.878 568.906 133.043 569.323 134.449 569.323C136.624 569.323 138.323 568.535 139.547 566.96L142.32 570.065C141.474 571.263 140.328 572.2 138.883 572.878C137.438 573.542 135.836 573.874 134.078 573.874ZM133.434 556.53C132.314 556.53 131.402 556.907 130.699 557.663C130.009 558.418 129.566 559.499 129.371 560.905H137.223V560.456C137.197 559.206 136.858 558.242 136.207 557.565C135.556 556.875 134.632 556.53 133.434 556.53ZM172.379 567.624H162.106L160.152 573.483H153.922L164.508 545.045H169.938L180.582 573.483H174.352L172.379 567.624ZM163.688 562.878H170.797L167.223 552.233L163.688 562.878ZM189.273 547.155V552.35H192.887V556.491H189.273V567.038C189.273 567.819 189.423 568.379 189.723 568.717C190.022 569.056 190.595 569.225 191.441 569.225C192.066 569.225 192.62 569.18 193.102 569.088V573.366C191.995 573.704 190.856 573.874 189.684 573.874C185.725 573.874 183.707 571.875 183.629 567.878V556.491H180.543V552.35H183.629V547.155H189.273ZM201.988 573.483H196.324V543.483H201.988V573.483ZM218.902 573.483C218.642 572.975 218.453 572.344 218.336 571.588C216.969 573.112 215.191 573.874 213.004 573.874C210.934 573.874 209.215 573.275 207.848 572.077C206.494 570.879 205.816 569.368 205.816 567.545C205.816 565.306 206.643 563.587 208.297 562.389C209.964 561.191 212.366 560.586 215.504 560.573H218.102V559.362C218.102 558.385 217.848 557.604 217.34 557.018C216.845 556.432 216.057 556.139 214.977 556.139C214.026 556.139 213.277 556.367 212.731 556.823C212.197 557.279 211.93 557.904 211.93 558.698H206.285C206.285 557.474 206.663 556.341 207.418 555.299C208.173 554.258 209.241 553.444 210.621 552.858C212.001 552.259 213.551 551.96 215.27 551.96C217.874 551.96 219.938 552.617 221.461 553.932C222.997 555.234 223.766 557.07 223.766 559.44V568.6C223.779 570.605 224.059 572.122 224.606 573.151V573.483H218.902ZM214.234 569.557C215.068 569.557 215.836 569.375 216.539 569.01C217.242 568.633 217.763 568.131 218.102 567.506V563.874H215.992C213.167 563.874 211.663 564.85 211.481 566.803L211.461 567.135C211.461 567.838 211.708 568.418 212.203 568.874C212.698 569.329 213.375 569.557 214.234 569.557ZM233.297 552.35L233.473 554.792C234.983 552.904 237.008 551.96 239.547 551.96C241.787 551.96 243.453 552.617 244.547 553.932C245.641 555.247 246.201 557.213 246.227 559.831V573.483H240.582V559.967C240.582 558.769 240.322 557.904 239.801 557.37C239.28 556.823 238.414 556.549 237.203 556.549C235.615 556.549 234.423 557.226 233.629 558.581V573.483H227.984V552.35H233.297ZM257.281 547.155V552.35H260.895V556.491H257.281V567.038C257.281 567.819 257.431 568.379 257.731 568.717C258.03 569.056 258.603 569.225 259.449 569.225C260.074 569.225 260.628 569.18 261.109 569.088V573.366C260.003 573.704 258.863 573.874 257.691 573.874C253.733 573.874 251.715 571.875 251.637 567.878V556.491H248.551V552.35H251.637V547.155H257.281ZM269.996 573.483H264.332V552.35H269.996V573.483ZM264 546.881C264 546.035 264.28 545.338 264.84 544.792C265.413 544.245 266.188 543.971 267.164 543.971C268.128 543.971 268.896 544.245 269.469 544.792C270.042 545.338 270.328 546.035 270.328 546.881C270.328 547.741 270.035 548.444 269.449 548.991C268.876 549.538 268.115 549.811 267.164 549.811C266.214 549.811 265.445 549.538 264.859 548.991C264.287 548.444 264 547.741 264 546.881ZM283.453 569.323C284.495 569.323 285.341 569.036 285.992 568.463C286.643 567.891 286.982 567.129 287.008 566.178H292.301C292.288 567.611 291.897 568.926 291.129 570.124C290.361 571.309 289.306 572.233 287.965 572.897C286.637 573.548 285.165 573.874 283.551 573.874C280.53 573.874 278.147 572.917 276.402 571.003C274.658 569.075 273.785 566.419 273.785 563.034V562.663C273.785 559.407 274.651 556.81 276.383 554.87C278.115 552.93 280.491 551.96 283.512 551.96C286.155 551.96 288.271 552.715 289.859 554.225C291.461 555.723 292.275 557.721 292.301 560.221H287.008C286.982 559.128 286.643 558.242 285.992 557.565C285.341 556.875 284.482 556.53 283.414 556.53C282.099 556.53 281.103 557.012 280.426 557.975C279.762 558.926 279.43 560.475 279.43 562.624V563.21C279.43 565.384 279.762 566.947 280.426 567.897C281.09 568.848 282.099 569.323 283.453 569.323ZM320.602 566.022C320.602 564.915 320.211 564.069 319.43 563.483C318.649 562.884 317.242 562.259 315.211 561.608C313.18 560.944 311.572 560.293 310.387 559.655C307.158 557.91 305.543 555.56 305.543 552.604C305.543 551.068 305.973 549.7 306.832 548.503C307.704 547.292 308.948 546.348 310.563 545.671C312.19 544.993 314.013 544.655 316.031 544.655C318.063 544.655 319.872 545.026 321.461 545.768C323.05 546.497 324.28 547.532 325.152 548.874C326.038 550.215 326.481 551.738 326.481 553.444H320.621C320.621 552.142 320.211 551.133 319.391 550.417C318.57 549.687 317.418 549.323 315.934 549.323C314.501 549.323 313.388 549.629 312.594 550.241C311.8 550.84 311.402 551.634 311.402 552.624C311.402 553.548 311.865 554.323 312.789 554.948C313.727 555.573 315.1 556.159 316.91 556.706C320.244 557.708 322.672 558.952 324.195 560.436C325.719 561.921 326.481 563.769 326.481 565.983C326.481 568.444 325.55 570.378 323.688 571.784C321.826 573.177 319.319 573.874 316.168 573.874C313.981 573.874 311.988 573.476 310.191 572.682C308.395 571.875 307.021 570.775 306.07 569.381C305.133 567.988 304.664 566.374 304.664 564.538H310.543C310.543 567.676 312.418 569.245 316.168 569.245C317.561 569.245 318.649 568.965 319.43 568.405C320.211 567.832 320.602 567.038 320.602 566.022ZM342.75 571.335C341.357 573.027 339.43 573.874 336.969 573.874C334.703 573.874 332.971 573.223 331.773 571.921C330.589 570.618 329.983 568.711 329.957 566.198V552.35H335.602V566.003C335.602 568.203 336.604 569.303 338.609 569.303C340.523 569.303 341.839 568.639 342.555 567.311V552.35H348.219V573.483H342.906L342.75 571.335ZM357.672 552.35L357.848 554.792C359.358 552.904 361.383 551.96 363.922 551.96C366.162 551.96 367.828 552.617 368.922 553.932C370.016 555.247 370.576 557.213 370.602 559.831V573.483H364.957V559.967C364.957 558.769 364.697 557.904 364.176 557.37C363.655 556.823 362.789 556.549 361.578 556.549C359.99 556.549 358.798 557.226 358.004 558.581V573.483H352.359V552.35H357.672ZM386.344 567.643C386.344 566.953 385.999 566.413 385.309 566.022C384.632 565.618 383.538 565.26 382.027 564.948C377.001 563.893 374.488 561.758 374.488 558.542C374.488 556.667 375.263 555.104 376.813 553.854C378.375 552.591 380.413 551.96 382.926 551.96C385.608 551.96 387.75 552.591 389.352 553.854C390.966 555.117 391.773 556.758 391.773 558.776H386.129C386.129 557.969 385.869 557.305 385.348 556.784C384.827 556.25 384.013 555.983 382.906 555.983C381.956 555.983 381.22 556.198 380.699 556.628C380.178 557.057 379.918 557.604 379.918 558.268C379.918 558.893 380.211 559.401 380.797 559.792C381.396 560.169 382.399 560.501 383.805 560.788C385.211 561.061 386.396 561.374 387.359 561.725C390.341 562.819 391.832 564.713 391.832 567.409C391.832 569.336 391.005 570.898 389.352 572.096C387.698 573.281 385.563 573.874 382.945 573.874C381.175 573.874 379.599 573.561 378.219 572.936C376.852 572.298 375.777 571.432 374.996 570.338C374.215 569.232 373.824 568.04 373.824 566.764H379.176C379.228 567.767 379.599 568.535 380.289 569.069C380.979 569.603 381.904 569.87 383.063 569.87C384.143 569.87 384.957 569.668 385.504 569.264C386.064 568.848 386.344 568.307 386.344 567.643ZM400.992 554.655C402.49 552.858 404.371 551.96 406.637 551.96C411.22 551.96 413.544 554.622 413.609 559.948V573.483H407.965V560.104C407.965 558.893 407.704 558.001 407.184 557.428C406.663 556.842 405.797 556.549 404.586 556.549C402.932 556.549 401.734 557.187 400.992 558.463V573.483H395.348V543.483H400.992V554.655ZM423.824 573.483H418.16V552.35H423.824V573.483ZM417.828 546.881C417.828 546.035 418.108 545.338 418.668 544.792C419.241 544.245 420.016 543.971 420.992 543.971C421.956 543.971 422.724 544.245 423.297 544.792C423.87 545.338 424.156 546.035 424.156 546.881C424.156 547.741 423.863 548.444 423.277 548.991C422.704 549.538 421.943 549.811 420.992 549.811C420.042 549.811 419.273 549.538 418.688 548.991C418.115 548.444 417.828 547.741 417.828 546.881ZM433.688 552.35L433.863 554.792C435.374 552.904 437.399 551.96 439.938 551.96C442.177 551.96 443.844 552.617 444.938 553.932C446.031 555.247 446.591 557.213 446.617 559.831V573.483H440.973V559.967C440.973 558.769 440.712 557.904 440.191 557.37C439.671 556.823 438.805 556.549 437.594 556.549C436.005 556.549 434.814 557.226 434.02 558.581V573.483H428.375V552.35H433.688ZM460.641 573.874C457.542 573.874 455.016 572.923 453.063 571.022C451.122 569.121 450.152 566.588 450.152 563.424V562.878C450.152 560.755 450.563 558.861 451.383 557.194C452.203 555.514 453.362 554.225 454.859 553.327C456.37 552.415 458.089 551.96 460.016 551.96C462.906 551.96 465.178 552.871 466.832 554.694C468.499 556.517 469.332 559.101 469.332 562.448V564.753H455.875C456.057 566.133 456.604 567.24 457.516 568.073C458.44 568.906 459.606 569.323 461.012 569.323C463.186 569.323 464.885 568.535 466.109 566.96L468.883 570.065C468.037 571.263 466.891 572.2 465.445 572.878C464 573.542 462.399 573.874 460.641 573.874ZM459.996 556.53C458.876 556.53 457.965 556.907 457.262 557.663C456.572 558.418 456.129 559.499 455.934 560.905H463.785V560.456C463.759 559.206 463.421 558.242 462.77 557.565C462.119 556.875 461.194 556.53 459.996 556.53ZM167.301 613.28L171.129 593.045H176.969L170.66 621.483H164.762L160.133 602.46L155.504 621.483H149.606L143.297 593.045H149.137L152.984 613.241L157.672 593.045H162.633L167.301 613.28ZM185.289 602.655C186.787 600.858 188.668 599.96 190.934 599.96C195.517 599.96 197.841 602.622 197.906 607.948V621.483H192.262V608.104C192.262 606.893 192.001 606.001 191.481 605.428C190.96 604.842 190.094 604.549 188.883 604.549C187.229 604.549 186.031 605.187 185.289 606.463V621.483H179.645V591.483H185.289V602.655ZM201.285 610.721C201.285 608.625 201.689 606.756 202.496 605.116C203.303 603.475 204.462 602.206 205.973 601.307C207.496 600.409 209.26 599.96 211.266 599.96C214.117 599.96 216.441 600.832 218.238 602.577C220.048 604.322 221.057 606.691 221.266 609.686L221.305 611.131C221.305 614.374 220.4 616.978 218.59 618.944C216.78 620.897 214.352 621.874 211.305 621.874C208.258 621.874 205.823 620.897 204 618.944C202.19 616.991 201.285 614.335 201.285 610.975V610.721ZM206.93 611.131C206.93 613.137 207.307 614.673 208.063 615.741C208.818 616.795 209.899 617.323 211.305 617.323C212.672 617.323 213.74 616.802 214.508 615.76C215.276 614.706 215.66 613.026 215.66 610.721C215.66 608.755 215.276 607.232 214.508 606.151C213.74 605.07 212.659 604.53 211.266 604.53C209.885 604.53 208.818 605.07 208.063 606.151C207.307 607.219 206.93 608.879 206.93 611.131ZM257.613 617.889C256.559 619.152 255.068 620.135 253.141 620.838C251.214 621.529 249.078 621.874 246.734 621.874C244.273 621.874 242.112 621.34 240.25 620.272C238.401 619.191 236.969 617.629 235.953 615.585C234.951 613.54 234.436 611.138 234.41 608.378V606.444C234.41 603.605 234.885 601.151 235.836 599.081C236.8 596.997 238.18 595.409 239.977 594.315C241.787 593.208 243.902 592.655 246.324 592.655C249.697 592.655 252.333 593.462 254.234 595.077C256.135 596.678 257.262 599.016 257.613 602.088H251.91C251.65 600.461 251.07 599.269 250.172 598.514C249.287 597.759 248.063 597.381 246.5 597.381C244.508 597.381 242.991 598.13 241.949 599.628C240.908 601.125 240.38 603.351 240.367 606.307V608.124C240.367 611.105 240.934 613.358 242.066 614.881C243.199 616.405 244.859 617.167 247.047 617.167C249.247 617.167 250.816 616.698 251.754 615.76V610.858H246.422V606.542H257.613V617.889ZM261.129 610.721C261.129 608.625 261.533 606.756 262.34 605.116C263.147 603.475 264.306 602.206 265.816 601.307C267.34 600.409 269.104 599.96 271.109 599.96C273.961 599.96 276.285 600.832 278.082 602.577C279.892 604.322 280.901 606.691 281.109 609.686L281.149 611.131C281.149 614.374 280.244 616.978 278.434 618.944C276.624 620.897 274.195 621.874 271.149 621.874C268.102 621.874 265.667 620.897 263.844 618.944C262.034 616.991 261.129 614.335 261.129 610.975V610.721ZM266.773 611.131C266.773 613.137 267.151 614.673 267.906 615.741C268.662 616.795 269.742 617.323 271.149 617.323C272.516 617.323 273.583 616.802 274.352 615.76C275.12 614.706 275.504 613.026 275.504 610.721C275.504 608.755 275.12 607.232 274.352 606.151C273.583 605.07 272.503 604.53 271.109 604.53C269.729 604.53 268.662 605.07 267.906 606.151C267.151 607.219 266.773 608.879 266.773 611.131ZM291.383 595.155V600.35H294.996V604.491H291.383V615.038C291.383 615.819 291.533 616.379 291.832 616.717C292.132 617.056 292.704 617.225 293.551 617.225C294.176 617.225 294.729 617.18 295.211 617.088V621.366C294.104 621.704 292.965 621.874 291.793 621.874C287.835 621.874 285.816 619.875 285.738 615.878V604.491H282.652V600.35H285.738V595.155H291.383ZM324.527 615.624H314.254L312.301 621.483H306.07L316.656 593.045H322.086L332.731 621.483H326.5L324.527 615.624ZM315.836 610.878H322.945L319.371 600.233L315.836 610.878ZM352.731 613.807L355.504 600.35H360.953L355.563 621.483H350.836L346.832 608.182L342.828 621.483H338.121L332.731 600.35H338.18L340.934 613.788L344.801 600.35H348.883L352.731 613.807ZM376.012 621.483C375.751 620.975 375.563 620.344 375.445 619.588C374.078 621.112 372.301 621.874 370.113 621.874C368.043 621.874 366.324 621.275 364.957 620.077C363.603 618.879 362.926 617.368 362.926 615.545C362.926 613.306 363.753 611.587 365.406 610.389C367.073 609.191 369.475 608.586 372.613 608.573H375.211V607.362C375.211 606.385 374.957 605.604 374.449 605.018C373.954 604.432 373.167 604.139 372.086 604.139C371.135 604.139 370.387 604.367 369.84 604.823C369.306 605.279 369.039 605.904 369.039 606.698H363.395C363.395 605.474 363.772 604.341 364.527 603.299C365.283 602.258 366.35 601.444 367.731 600.858C369.111 600.259 370.66 599.96 372.379 599.96C374.983 599.96 377.047 600.617 378.57 601.932C380.107 603.234 380.875 605.07 380.875 607.44V616.6C380.888 618.605 381.168 620.122 381.715 621.151V621.483H376.012ZM371.344 617.557C372.177 617.557 372.945 617.375 373.649 617.01C374.352 616.633 374.872 616.131 375.211 615.506V611.874H373.102C370.276 611.874 368.772 612.85 368.59 614.803L368.57 615.135C368.57 615.838 368.818 616.418 369.313 616.874C369.807 617.329 370.484 617.557 371.344 617.557ZM392.789 613.495L396.695 600.35H402.75L394.254 624.764L393.785 625.878C392.522 628.638 390.439 630.018 387.535 630.018C386.715 630.018 385.882 629.894 385.035 629.647V625.37L385.895 625.389C386.962 625.389 387.757 625.226 388.277 624.901C388.811 624.575 389.228 624.035 389.527 623.28L390.191 621.542L382.789 600.35H388.863L392.789 613.495Z" fill="white"/>
<path fill-rule="evenodd" clip-rule="evenodd" d="M464.177 0.226313C463.512 0.354213 462.293 0.356813 461.467 0.233013C460.644 0.109113 461.19 0.00411343 462.68 0.000113432C464.171 -0.00388657 464.844 0.0984126 464.177 0.226313ZM477.378 2.53901C476.931 2.53901 476.415 2.29671 476.23 2.00051C476.046 1.70441 476.262 1.46211 476.709 1.46211C477.156 1.46211 477.672 1.70441 477.856 2.00051C478.041 2.29671 477.825 2.53901 477.378 2.53901ZM64.3012 3.05871C65.4936 3.02771 66.9571 2.79351 67.5533 2.53771C68.8202 1.99651 463.118 2.19981 466.745 2.74501C474.056 3.84211 486.954 8.59421 492.491 12.2289C493.385 12.8158 494.483 13.4634 494.93 13.6666C495.377 13.8712 495.865 14.1782 496.014 14.3518C496.163 14.5242 497.26 15.2942 498.453 16.0642C501.958 18.3271 511.14 27.2618 514.259 31.4484C519.763 38.8323 526.459 52.3494 527.278 57.7328C527.414 58.6213 527.732 59.8329 527.987 60.4252C528.241 61.0175 528.581 63.1365 528.742 65.1342C528.903 67.132 529.288 69.2361 529.598 69.8096C530.254 71.0278 530.356 485.346 530.058 762.483H503.047C503.319 485.717 503.051 68.0153 502.247 66.6177C501.822 65.8773 501.464 64.6617 501.453 63.9173C501.425 61.8589 497.845 52.6173 497.076 52.6173C496.83 52.6173 496.464 52.1003 496.262 51.469C494.823 46.9633 481.579 34.3091 478.302 34.3091C477.908 34.3091 477.584 34.1274 477.584 33.9052C477.583 33.6831 476.424 33.0598 475.01 32.52C473.594 31.9815 472.039 31.3313 471.554 31.0769C471.069 30.8225 469.728 30.4442 468.573 30.2369C467.419 30.0295 466.131 29.5893 465.714 29.2582C465.173 28.8301 456.306 28.6551 435.069 28.6551H405.185L402.902 30.4509C401.647 31.4377 400.62 32.695 400.62 33.2456C400.62 33.7962 400.376 34.3952 400.078 34.5783C399.78 34.7614 399.528 36.8965 399.518 39.3223C399.507 42.3445 399.251 44.0609 398.705 44.7771C398.267 45.3532 397.907 46.3225 397.904 46.931C397.891 49.9222 391.332 57.6763 387.191 59.5959C386.378 59.9729 385.29 60.4952 384.773 60.7577C382.815 61.7471 379.156 62.8336 377.752 62.8403C376.95 62.8443 376.143 63.0907 375.958 63.3869C375.456 64.1946 163.532 64.1246 160.11 63.3155C147.05 60.2273 138.854 51.4771 138.833 40.6012C138.831 38.8781 138.542 36.9395 138.192 36.2934C137.841 35.6459 137.409 34.4127 137.232 33.5512C137.042 32.6385 136.043 31.2909 134.836 30.3203L132.766 28.6551L106.935 28.5878C76.716 28.5084 67.6224 29.067 65.4123 31.1348C65.1291 31.4 64.4706 31.6167 63.9475 31.6167C61.5071 31.6167 51.1127 38.0071 46.5015 42.3432C43.8972 44.7919 38.3104 52.1919 37.1193 54.7712C35.3361 58.6348 34.7616 60.129 34.7616 60.9098C34.7616 61.3837 34.5177 61.7714 34.2195 61.7714C33.9214 61.7714 33.6775 62.3463 33.6775 63.0503C33.6775 63.753 33.2507 65.3887 32.729 66.6851C31.7407 69.1398 31.4137 486.078 31.7481 762.483H0.0914856C-0.16248 486.229 0.113765 72.2914 0.902109 70.1179C1.33165 68.9332 1.68667 66.9893 1.69073 65.7993C1.69886 63.7732 3.31677 56.913 4.35743 54.502C4.61218 53.9096 5.24494 52.3346 5.76394 51.0019C7.36564 46.8852 7.77074 45.9146 8.23684 45.0786C8.48484 44.6344 9.33714 43.0593 10.1312 41.5785C10.9266 40.0977 11.9144 38.5038 12.329 38.0367C12.7423 37.5682 13.0811 37.0069 13.0811 36.7888C13.0811 36.152 15.4415 33.0868 19.8494 27.9955C23.9105 23.304 33.3008 15.3763 36.6586 13.8026C37.2548 13.5239 38.4743 12.8481 39.3687 12.3016C42.6343 10.3052 45.1045 9.00071 45.6208 9.00071C45.9121 9.00071 47.4135 8.39491 48.9582 7.65451C49.237 7.5209 49.5109 7.38685 49.7765 7.25688C50.9827 6.66663 52.0172 6.16041 52.5524 6.16041C52.9903 5.71875 53.4981 5.63607 54.0255 5.55021C54.2246 5.51779 54.4265 5.48492 54.6284 5.43211C54.8595 5.37174 55.1174 5.27578 55.3959 5.17214C56.0058 4.9452 56.7146 4.68146 57.457 4.67411C58.5383 4.66331 60.0329 4.30791 60.7781 3.88521C61.5234 3.46251 63.1088 3.08961 64.3012 3.05871Z" fill="#040404"/>
<path fill-rule="evenodd" clip-rule="evenodd" d="M464.177 0.226313C463.512 0.354213 462.293 0.356813 461.467 0.233013C460.644 0.109113 461.19 0.00411343 462.68 0.000113432C464.171 -0.00388657 464.844 0.0984126 464.177 0.226313ZM477.378 2.53901C476.931 2.53901 476.415 2.29671 476.23 2.00051C476.046 1.70441 476.262 1.46211 476.709 1.46211C477.156 1.46211 477.672 1.70441 477.856 2.00051C478.041 2.29671 477.825 2.53901 477.378 2.53901ZM64.3012 3.05871C65.4936 3.02771 66.9571 2.79351 67.5533 2.53771C68.8202 1.99651 463.118 2.19981 466.745 2.74501C474.056 3.84211 486.954 8.59421 492.491 12.2289C493.385 12.8158 494.483 13.4634 494.93 13.6666C495.377 13.8712 495.865 14.1782 496.014 14.3518C496.163 14.5242 497.26 15.2942 498.453 16.0642C501.958 18.3271 511.14 27.2618 514.259 31.4484C519.763 38.8323 526.459 52.3494 527.278 57.7328C527.414 58.6213 527.732 59.8329 527.987 60.4252C528.241 61.0175 528.581 63.1365 528.742 65.1342C528.903 67.132 529.288 69.2361 529.598 69.8096C530.254 71.0278 530.356 485.346 530.058 762.483H503.047C503.319 485.717 503.051 68.0153 502.247 66.6177C501.822 65.8773 501.464 64.6617 501.453 63.9173C501.425 61.8589 497.845 52.6173 497.076 52.6173C496.83 52.6173 496.464 52.1003 496.262 51.469C494.823 46.9633 481.579 34.3091 478.302 34.3091C477.908 34.3091 477.584 34.1274 477.584 33.9052C477.583 33.6831 476.424 33.0598 475.01 32.52C473.594 31.9815 472.039 31.3313 471.554 31.0769C471.069 30.8225 469.728 30.4442 468.573 30.2369C467.419 30.0295 466.131 29.5893 465.714 29.2582C465.173 28.8301 456.306 28.6551 435.069 28.6551H405.185L402.902 30.4509C401.647 31.4377 400.62 32.695 400.62 33.2456C400.62 33.7962 400.376 34.3952 400.078 34.5783C399.78 34.7614 399.528 36.8965 399.518 39.3223C399.507 42.3445 399.251 44.0609 398.705 44.7771C398.267 45.3532 397.907 46.3225 397.904 46.931C397.891 49.9222 391.332 57.6763 387.191 59.5959C386.378 59.9729 385.29 60.4952 384.773 60.7577C382.815 61.7471 379.156 62.8336 377.752 62.8403C376.95 62.8443 376.143 63.0907 375.958 63.3869C375.456 64.1946 163.532 64.1246 160.11 63.3155C147.05 60.2273 138.854 51.4771 138.833 40.6012C138.831 38.8781 138.542 36.9395 138.192 36.2934C137.841 35.6459 137.409 34.4127 137.232 33.5512C137.042 32.6385 136.043 31.2909 134.836 30.3203L132.766 28.6551L106.935 28.5878C76.716 28.5084 67.6224 29.067 65.4123 31.1348C65.1291 31.4 64.4706 31.6167 63.9475 31.6167C61.5071 31.6167 51.1127 38.0071 46.5015 42.3432C43.8972 44.7919 38.3104 52.1919 37.1193 54.7712C35.3361 58.6348 34.7616 60.129 34.7616 60.9098C34.7616 61.3837 34.5177 61.7714 34.2195 61.7714C33.9214 61.7714 33.6775 62.3463 33.6775 63.0503C33.6775 63.753 33.2507 65.3887 32.729 66.6851C31.7407 69.1398 31.4137 486.078 31.7481 762.483H0.0914856C-0.16248 486.229 0.113765 72.2914 0.902109 70.1179C1.33165 68.9332 1.68667 66.9893 1.69073 65.7993C1.69886 63.7732 3.31677 56.913 4.35743 54.502C4.61218 53.9096 5.24494 52.3346 5.76394 51.0019C7.36564 46.8852 7.77074 45.9146 8.23684 45.0786C8.48484 44.6344 9.33714 43.0593 10.1312 41.5785C10.9266 40.0977 11.9144 38.5038 12.329 38.0367C12.7423 37.5682 13.0811 37.0069 13.0811 36.7888C13.0811 36.152 15.4415 33.0868 19.8494 27.9955C23.9105 23.304 33.3008 15.3763 36.6586 13.8026C37.2548 13.5239 38.4743 12.8481 39.3687 12.3016C42.6343 10.3052 45.1045 9.00071 45.6208 9.00071C45.9121 9.00071 47.4135 8.39491 48.9582 7.65451C49.237 7.5209 49.5109 7.38685 49.7765 7.25688C50.9827 6.66663 52.0172 6.16041 52.5524 6.16041C52.9903 5.71875 53.4981 5.63607 54.0255 5.55021C54.2246 5.51779 54.4265 5.48492 54.6284 5.43211C54.8595 5.37174 55.1174 5.27578 55.3959 5.17214C56.0058 4.9452 56.7146 4.68146 57.457 4.67411C58.5383 4.66331 60.0329 4.30791 60.7781 3.88521C61.5234 3.46251 63.1088 3.08961 64.3012 3.05871Z" fill="#040404"/>
</svg>
