<svg width="307" height="97" viewBox="0 0 307 97" fill="none" xmlns="http://www.w3.org/2000/svg">
<path d="M118.946 24.9172C115.85 24.0634 113.593 23.0172 112.176 21.7786C110.772 20.528 110.07 18.9888 110.07 17.161C110.07 15.0927 110.929 13.3851 112.646 12.0383C114.376 10.6794 116.621 10 119.379 10C121.26 10 122.933 10.3487 124.4 11.0462C125.88 11.7436 127.021 12.7057 127.823 13.9322C128.638 15.1588 129.045 16.4996 129.045 17.9546H125.416C125.416 16.3673 124.889 15.1227 123.836 14.2208C122.783 13.3069 121.297 12.85 119.379 12.85C117.599 12.85 116.207 13.2288 115.204 13.9863C114.213 14.7319 113.718 15.7721 113.718 17.1069C113.718 18.1771 114.188 19.085 115.129 19.8306C116.081 20.5641 117.693 21.2375 119.962 21.8508C122.244 22.4641 124.024 23.1435 125.303 23.8891C126.594 24.6226 127.547 25.4824 128.162 26.4685C128.788 27.4545 129.102 28.615 129.102 29.9497C129.102 32.0782 128.237 33.7858 126.507 35.0725C124.776 36.3471 122.463 36.9845 119.567 36.9845C117.686 36.9845 115.931 36.6417 114.301 35.9563C112.671 35.2589 111.411 34.3089 110.521 33.1063C109.643 31.9038 109.205 30.539 109.205 29.0118H112.834C112.834 30.5991 113.442 31.8557 114.658 32.7817C115.887 33.6956 117.523 34.1525 119.567 34.1525C121.473 34.1525 122.933 33.7798 123.949 33.0342C124.964 32.2886 125.472 31.2725 125.472 29.9858C125.472 28.6991 125.002 27.7071 124.062 27.0096C123.121 26.3001 121.416 25.6026 118.946 24.9172Z" fill="white"/>
<path d="M132.28 26.6849C132.28 24.7729 132.669 23.0533 133.446 21.5261C134.236 19.9989 135.327 18.8205 136.718 17.9907C138.123 17.161 139.721 16.7461 141.514 16.7461C144.285 16.7461 146.523 17.666 148.228 19.5059C149.946 21.3457 150.805 23.7929 150.805 26.8473V27.0817C150.805 28.9817 150.422 30.6893 149.657 32.2045C148.905 33.7076 147.821 34.8801 146.404 35.7218C145 36.5636 143.382 36.9845 141.552 36.9845C138.793 36.9845 136.555 36.0645 134.838 34.2247C133.133 32.3848 132.28 29.9497 132.28 26.9194V26.6849ZM135.778 27.0817C135.778 29.2463 136.298 30.9839 137.339 32.2947C138.392 33.6054 139.796 34.2608 141.552 34.2608C143.32 34.2608 144.724 33.5994 145.764 32.2766C146.805 30.9418 147.325 29.0779 147.325 26.6849C147.325 24.5444 146.792 22.8128 145.727 21.49C144.674 20.1552 143.269 19.4879 141.514 19.4879C139.796 19.4879 138.411 20.1432 137.358 21.454C136.305 22.7647 135.778 24.6406 135.778 27.0817Z" fill="white"/>
<path d="M158.459 17.1069L158.572 19.56C160.126 17.6841 162.157 16.7461 164.665 16.7461C168.965 16.7461 171.134 19.073 171.172 23.7267V36.6237H167.693V23.7087C167.68 22.3017 167.342 21.2616 166.677 20.5882C166.025 19.9147 165.003 19.578 163.612 19.578C162.483 19.578 161.493 19.8666 160.64 20.4439C159.788 21.0211 159.123 21.7786 158.647 22.7166V36.6237H155.168V17.1069H158.459Z" fill="white"/>
<path d="M175.591 26.703C175.591 23.6606 176.325 21.2435 177.792 19.4518C179.259 17.648 181.202 16.7461 183.622 16.7461C186.104 16.7461 188.041 17.5879 189.433 19.2714L189.602 17.1069H192.781V36.1547C192.781 38.68 191.997 40.6702 190.43 42.1252C188.875 43.5803 186.781 44.3078 184.148 44.3078C182.681 44.3078 181.246 44.0072 179.842 43.4059C178.437 42.8046 177.366 41.9809 176.626 40.9347L178.431 38.9325C179.923 40.7002 181.747 41.5841 183.904 41.5841C185.596 41.5841 186.913 41.1271 187.853 40.2132C188.806 39.2993 189.283 38.0126 189.283 36.3531V34.6756C187.891 36.2149 185.991 36.9845 183.584 36.9845C181.202 36.9845 179.271 36.0645 177.792 34.2247C176.325 32.3848 175.591 29.8776 175.591 26.703ZM179.089 27.0817C179.089 29.2823 179.56 31.014 180.5 32.2766C181.44 33.5272 182.757 34.1525 184.449 34.1525C186.643 34.1525 188.254 33.1965 189.283 31.2845V22.3739C188.217 20.51 186.618 19.578 184.487 19.578C182.794 19.578 181.472 20.2094 180.519 21.472C179.566 22.7346 179.089 24.6046 179.089 27.0817Z" fill="white"/>
<path d="M229.19 36.6237H225.56L211.775 16.3854V36.6237H208.145V10.3608H211.775L225.598 30.6893V10.3608H229.19V36.6237Z" fill="white"/>
<path d="M247.62 36.6237C247.42 36.2389 247.257 35.5535 247.131 34.5674C245.514 36.1788 243.583 36.9845 241.339 36.9845C239.333 36.9845 237.684 36.4433 236.393 35.3611C235.114 34.2668 234.475 32.8839 234.475 31.2124C234.475 29.1801 235.277 27.6048 236.882 26.4865C238.499 25.3561 240.768 24.7909 243.69 24.7909H247.075V23.2577C247.075 22.0913 246.711 21.1654 245.984 20.4799C245.257 19.7825 244.185 19.4337 242.768 19.4337C241.527 19.4337 240.486 19.7344 239.646 20.3356C238.806 20.9369 238.386 21.6644 238.386 22.5182H234.888C234.888 21.5442 235.246 20.6062 235.96 19.7043C236.687 18.7904 237.665 18.0689 238.894 17.5398C240.135 17.0107 241.496 16.7461 242.975 16.7461C245.32 16.7461 247.156 17.3113 248.485 18.4417C249.814 19.56 250.504 21.1052 250.554 23.0774V32.0602C250.554 33.8519 250.792 35.2769 251.269 36.3351V36.6237H247.62ZM241.847 34.0804C242.937 34.0804 243.972 33.8098 244.95 33.2687C245.928 32.7276 246.636 32.0241 247.075 31.1583V27.1539H244.348C240.085 27.1539 237.954 28.3504 237.954 30.7434C237.954 31.7896 238.317 32.6073 239.044 33.1965C239.772 33.7858 240.706 34.0804 241.847 34.0804Z" fill="white"/>
<path d="M259.28 17.1069L259.374 19.2714C260.866 17.5879 262.879 16.7461 265.411 16.7461C268.257 16.7461 270.194 17.7923 271.222 19.8847C271.899 18.9467 272.777 18.1891 273.855 17.6119C274.946 17.0347 276.231 16.7461 277.711 16.7461C282.174 16.7461 284.443 19.0129 284.519 23.5463V36.6237H281.039V23.7448C281.039 22.3498 280.707 21.3097 280.043 20.6242C279.378 19.9268 278.262 19.578 276.695 19.578C275.404 19.578 274.332 19.9508 273.479 20.6964C272.627 21.4299 272.131 22.422 271.993 23.6726V36.6237H268.495V23.8349C268.495 20.997 267.047 19.578 264.151 19.578C261.869 19.578 260.308 20.51 259.468 22.3739V36.6237H255.989V17.1069H259.28Z" fill="white"/>
<path d="M298.228 36.9845C295.47 36.9845 293.226 36.1187 291.496 34.387C289.766 32.6434 288.9 30.3165 288.9 27.4064V26.7931C288.9 24.8571 289.283 23.1315 290.048 21.6163C290.825 20.0891 291.903 18.8986 293.282 18.0448C294.674 17.179 296.179 16.7461 297.796 16.7461C300.441 16.7461 302.498 17.5819 303.964 19.2534C305.431 20.9249 306.165 23.3179 306.165 26.4324V27.8213H292.38C292.43 29.7453 293.013 31.3026 294.129 32.4931C295.257 33.6715 296.686 34.2608 298.417 34.2608C299.645 34.2608 300.686 34.0203 301.538 33.5393C302.391 33.0582 303.137 32.4209 303.776 31.6273L305.901 33.2146C304.196 35.7278 301.639 36.9845 298.228 36.9845ZM297.796 19.4879C296.392 19.4879 295.213 19.9809 294.26 20.9669C293.307 21.941 292.718 23.3119 292.492 25.0796H302.686V24.827C302.585 23.1315 302.109 21.8207 301.256 20.8948C300.404 19.9568 299.25 19.4879 297.796 19.4879Z" fill="white"/>
<path d="M135.699 82.819C134.519 84.1735 132.852 85.2279 130.697 85.982C128.542 86.7221 126.155 87.0922 123.534 87.0922C120.782 87.0922 118.365 86.5196 116.283 85.3745C114.216 84.2154 112.614 82.5397 111.478 80.3472C110.357 78.1547 109.782 75.5783 109.753 72.6177V70.544C109.753 67.4997 110.284 64.8673 111.347 62.6469C112.425 60.4126 113.968 58.7089 115.977 57.5359C118.001 56.3489 120.367 55.7554 123.075 55.7554C126.846 55.7554 129.795 56.6212 131.92 58.3528C134.046 60.0704 135.306 62.5771 135.699 65.8728H129.321C129.03 64.1272 128.382 62.8494 127.378 62.0395C126.388 61.2295 125.019 60.8245 123.272 60.8245C121.044 60.8245 119.348 61.6275 118.183 63.2335C117.018 64.8394 116.429 67.2274 116.414 70.3973V72.3454C116.414 75.5433 117.047 77.9592 118.314 79.5931C119.581 81.227 121.437 82.0439 123.883 82.0439C126.344 82.0439 128.098 81.5412 129.147 80.5357V75.278H123.184V70.6487H135.699V82.819Z" fill="white"/>
<path d="M151.489 87.0922C148.024 87.0922 145.199 86.0727 143.015 84.0339C140.846 81.995 139.761 79.2789 139.761 75.8855V75.299C139.761 73.0227 140.219 70.9908 141.137 69.2034C142.054 67.4019 143.35 66.0194 145.024 65.0558C146.713 64.0783 148.635 63.5896 150.79 63.5896C154.022 63.5896 156.563 64.5671 158.412 66.5221C160.276 68.4772 161.208 71.2492 161.208 74.8381V77.3099H146.16C146.364 78.7901 146.975 79.9771 147.994 80.8709C149.028 81.7646 150.331 82.2115 151.904 82.2115C154.335 82.2115 156.235 81.3666 157.604 79.6769L160.705 83.0075C159.759 84.2922 158.478 85.2977 156.861 86.0239C155.245 86.7361 153.454 87.0922 151.489 87.0922ZM150.768 68.4912C149.516 68.4912 148.497 68.8961 147.711 69.7061C146.939 70.516 146.444 71.6751 146.225 73.1833H155.005V72.7015C154.976 71.3609 154.597 70.3275 153.869 69.6014C153.141 68.8612 152.108 68.4912 150.768 68.4912Z" fill="white"/>
<path d="M170.62 64.0085L170.817 66.6269C172.506 64.602 174.77 63.5896 177.609 63.5896C180.113 63.5896 181.977 64.2948 183.2 65.7052C184.423 67.1156 185.049 69.2243 185.078 72.0312V86.6732H178.767V72.1778C178.767 70.8931 178.476 69.9644 177.893 69.3919C177.311 68.8054 176.342 68.5121 174.988 68.5121C173.212 68.5121 171.88 69.2383 170.992 70.6906V86.6732H164.68V64.0085H170.62Z" fill="white"/>
<path d="M200.759 87.0922C197.294 87.0922 194.47 86.0727 192.286 84.0339C190.116 81.995 189.031 79.2789 189.031 75.8855V75.299C189.031 73.0227 189.49 70.9908 190.407 69.2034C191.325 67.4019 192.62 66.0194 194.295 65.0558C195.984 64.0783 197.906 63.5896 200.06 63.5896C203.293 63.5896 205.833 64.5671 207.683 66.5221C209.546 68.4772 210.478 71.2492 210.478 74.8381V77.3099H195.43C195.634 78.7901 196.246 79.9771 197.265 80.8709C198.299 81.7646 199.602 82.2115 201.174 82.2115C203.606 82.2115 205.506 81.3666 206.874 79.6769L209.976 83.0075C209.029 84.2922 207.748 85.2977 206.132 86.0239C204.516 86.7361 202.725 87.0922 200.759 87.0922ZM200.039 68.4912C198.786 68.4912 197.767 68.8961 196.981 69.7061C196.209 70.516 195.714 71.6751 195.496 73.1833H204.276V72.7015C204.246 71.3609 203.868 70.3275 203.14 69.6014C202.412 68.8612 201.378 68.4912 200.039 68.4912Z" fill="white"/>
<path d="M227.36 69.6851C226.501 69.5734 225.744 69.5176 225.089 69.5176C222.701 69.5176 221.136 70.2926 220.393 71.8427V86.6732H214.082V64.0085H220.044L220.219 66.7107C221.485 64.6299 223.24 63.5896 225.482 63.5896C226.181 63.5896 226.836 63.6803 227.448 63.8619L227.36 69.6851Z" fill="white"/>
<path d="M243.456 86.6732C243.165 86.1286 242.954 85.4513 242.823 84.6413C241.294 86.2752 239.307 87.0922 236.861 87.0922C234.545 87.0922 232.624 86.4498 231.095 85.165C229.581 83.8803 228.823 82.2604 228.823 80.3053C228.823 77.9034 229.748 76.06 231.597 74.7753C233.461 73.4905 236.147 72.8412 239.656 72.8272H242.561V71.5285C242.561 70.4811 242.277 69.6433 241.709 69.0148C241.156 68.3864 240.275 68.0722 239.066 68.0722C238.003 68.0722 237.166 68.3166 236.555 68.8054C235.958 69.2941 235.659 69.9644 235.659 70.8163H229.348C229.348 69.5036 229.77 68.2887 230.614 67.1715C231.459 66.0543 232.653 65.1815 234.196 64.5531C235.739 63.9107 237.472 63.5896 239.394 63.5896C242.306 63.5896 244.614 64.2948 246.317 65.7052C248.035 67.1017 248.894 69.0707 248.894 71.6123V81.4364C248.909 83.587 249.222 85.2139 249.833 86.3171V86.6732H243.456ZM238.236 82.4629C239.168 82.4629 240.027 82.2673 240.814 81.8763C241.6 81.4714 242.182 80.9337 242.561 80.2634V76.3673H240.202C237.043 76.3673 235.361 77.4146 235.157 79.5093L235.135 79.8654C235.135 80.6195 235.412 81.2409 235.965 81.7297C236.518 82.2185 237.275 82.4629 238.236 82.4629Z" fill="white"/>
<path d="M261.299 58.4366V64.0085H265.34V68.4493H261.299V79.7607C261.299 80.5986 261.467 81.199 261.802 81.5621C262.136 81.9252 262.777 82.1068 263.723 82.1068C264.422 82.1068 265.041 82.0579 265.58 81.9601V86.5475C264.342 86.9106 263.068 87.0922 261.758 87.0922C257.332 87.0922 255.075 84.9486 254.988 80.6614V68.4493H251.537V64.0085H254.988V58.4366H261.299Z" fill="white"/>
<path d="M267.218 75.1314C267.218 72.8831 267.669 70.8791 268.572 69.1196C269.475 67.36 270.77 65.9985 272.459 65.0349C274.163 64.0713 276.136 63.5896 278.378 63.5896C281.567 63.5896 284.165 64.5252 286.175 66.3965C288.199 68.2677 289.327 70.8093 289.56 74.0212L289.604 75.5713C289.604 79.0485 288.592 81.8414 286.568 83.9501C284.544 86.0448 281.829 87.0922 278.422 87.0922C275.015 87.0922 272.292 86.0448 270.254 83.9501C268.23 81.8554 267.218 79.0066 267.218 75.4037V75.1314ZM273.529 75.5713C273.529 77.7218 273.952 79.3697 274.796 80.5148C275.641 81.6459 276.849 82.2115 278.422 82.2115C279.95 82.2115 281.144 81.6529 282.003 80.5357C282.862 79.4046 283.292 77.6031 283.292 75.1314C283.292 73.0227 282.862 71.3888 282.003 70.2298C281.144 69.0707 279.936 68.4912 278.378 68.4912C276.835 68.4912 275.641 69.0707 274.796 70.2298C273.952 71.3749 273.529 73.1554 273.529 75.5713Z" fill="white"/>
<path d="M306.77 69.6851C305.911 69.5734 305.153 69.5176 304.498 69.5176C302.11 69.5176 300.545 70.2926 299.803 71.8427V86.6732H293.491V64.0085H299.453L299.628 66.7107C300.895 64.6299 302.649 63.5896 304.891 63.5896C305.59 63.5896 306.245 63.6803 306.857 63.8619L306.77 69.6851Z" fill="white"/>
<path d="M13.1137 15.1299C-4.69636 34.0065 -4.3652 63.7504 14.1072 82.2228C32.9168 101.032 63.4132 101.032 82.2228 82.2228C101.032 63.4132 101.032 32.9168 82.2228 14.1072C63.7411 -4.37449 33.9766 -4.69668 15.1015 13.1406C17.3157 11.8129 20.2293 12.1032 22.1376 14.0115L33.6901 25.5641C43.6749 19.368 56.9606 20.604 65.6285 29.2719C69.9467 33.5901 72.4204 39.0543 73.0496 44.6855L75.2897 44.921C78.4553 45.2537 80.7518 48.0896 80.419 51.2552C80.0863 54.4207 77.2504 56.7172 74.0849 56.3845L71.7595 56.1401C71.1462 57.8942 70.3385 59.5954 69.3364 61.2103L82.1026 73.9765C84.3533 76.2273 84.3533 79.8764 82.1026 82.1271C79.8519 84.3778 76.2027 84.3778 73.952 82.1271L61.2378 69.4129C51.2225 75.808 37.7683 74.6309 29.0189 65.8815C24.8043 61.667 22.3468 56.3607 21.6463 50.873L21.1209 50.8177C17.9553 50.485 15.6588 47.6491 15.9915 44.4836C16.3243 41.318 19.1602 39.0215 22.3257 39.3542L22.7563 39.3995C23.4179 37.4066 24.3284 35.4781 25.4876 33.6627L13.987 22.1621C12.0798 20.2549 11.7887 17.3437 13.1137 15.1299Z" fill="#09ADB9"/>
<path d="M61.584 54.1689C61.584 57.4416 60.3659 60.0037 57.9298 61.8554C55.4936 63.707 51.9035 64.6329 47.1594 64.6329C45.3644 64.6329 43.6975 64.5037 42.1589 64.2453C40.6203 63.9869 39.2954 63.5994 38.1842 63.0826C37.1157 62.5228 36.2609 61.8338 35.6198 61.0157C35.0214 60.1975 34.7223 59.2286 34.7223 58.109C34.7223 57.0755 34.936 56.2143 35.3634 55.5253C35.7908 54.7933 36.3036 54.1904 36.902 53.7167C38.1414 54.4057 39.5518 55.0301 41.1332 55.5899C42.7573 56.1067 44.6164 56.365 46.7107 56.365C48.0356 56.365 49.04 56.1712 49.7238 55.7837C50.4504 55.3961 50.8136 54.8794 50.8136 54.2335C50.8136 53.6306 50.5572 53.1569 50.0443 52.8124C49.5315 52.468 48.6767 52.188 47.48 51.9727L45.5567 51.5852C41.8384 50.8531 39.0603 49.712 37.2225 48.1618C35.4275 46.5685 34.5299 44.3078 34.5299 41.3796C34.5299 39.7863 34.8719 38.3437 35.5557 37.0519C36.2395 35.76 37.2012 34.6835 38.4406 33.8223C39.68 32.961 41.1545 32.2936 42.8641 31.8199C44.6164 31.3462 46.5397 31.1094 48.6339 31.1094C50.2153 31.1094 51.6898 31.2386 53.0575 31.4969C54.4679 31.7123 55.6859 32.0567 56.7117 32.5304C57.7374 33.0041 58.5495 33.6285 59.1478 34.4036C59.7462 35.1357 60.0453 36.0184 60.0453 37.0519C60.0453 38.0423 59.853 38.9035 59.4684 39.6356C59.1265 40.3246 58.6777 40.9059 58.1221 41.3796C57.7802 41.1643 57.2673 40.949 56.5835 40.7337C55.8996 40.4753 55.1517 40.26 54.3396 40.0877C53.5276 39.8724 52.6942 39.7002 51.8394 39.571C51.0273 39.4418 50.2794 39.3772 49.5956 39.3772C48.1852 39.3772 47.0953 39.5495 46.326 39.894C45.5567 40.1954 45.172 40.6906 45.172 41.3796C45.172 41.8533 45.3857 42.2408 45.8131 42.5422C46.2405 42.8437 47.0526 43.1236 48.2493 43.382L50.2367 43.8341C54.3396 44.7815 57.2459 46.0948 58.9555 47.7742C60.7078 49.4106 61.584 51.5421 61.584 54.1689Z" fill="#09ADB9"/>
</svg>
